<?xml version="1.0" encoding="utf-8"?>
<!-- Generator: Adobe Illustrator 25.0.0, SVG Export Plug-In . SVG Version: 6.00 Build 0)  -->
<svg version="1.1" id="Camada_1" xmlns="http://www.w3.org/2000/svg" xmlns:xlink="http://www.w3.org/1999/xlink" x="0px" y="0px"
	 viewBox="0 0 1021 1363" style="enable-background:new 0 0 1021 1363;" xml:space="preserve">
<style type="text/css">
	.st0{fill:#FFFFFF;}
	.st1{fill:#EFE750;}
</style>
<g>
	<path class="st0" d="M206.5,0h608c114,0,206.5,92.5,206.5,206.5v950c0,114.1-92.5,206.5-206.5,206.5h-608
		C92.5,1363,0,1270.5,0,1156.5v-950C0,92.5,92.5,0,206.5,0z"/>
</g>
<g>
	<path class="st1" d="M251,95.5h519c89.5,0,162,72.5,162,162v847.9c0,89.5-72.5,162-162,162H251c-89.5,0-162-72.5-162-162V257.5
		C89,168,161.5,95.5,251,95.5z"/>
</g>
<g>
	<path class="st0" d="M587.3,286.4c44.3,0,85.9,10.1,123.6,30.1c157.2,83.4,198.4,314.9,91.7,515.9c-39.2,74-94.3,136-159.3,179.5
		c-30,20.2-62.6,36.3-96.9,47.6c-33.1,10.8-66.4,16.3-98.8,16.3c-44.3,0-85.9-10.1-123.6-30.1c-157.2-83.4-198.4-314.9-91.7-515.9
		c39.2-74,94.3-136,159.3-179.5c30-20.2,62.6-36.3,96.9-47.6C521.7,291.9,554.9,286.4,587.3,286.4L587.3,286.4 M587.3,258.4
		c-142.6,0-294.2,97-379.8,258.3c-114.1,215-67.8,462.9,103.4,553.7c42.7,22.7,89.2,33.4,136.7,33.4c142.6,0,294.2-97,379.8-258.3
		c114.1-215,67.8-462.9-103.4-553.7C681.3,269.1,634.8,258.4,587.3,258.4L587.3,258.4z"/>
</g>
<g>
	<path d="M652.6,542.9c-82.9-82.9-217.2-82.9-300.1,0s-82.9,217.2,0,300.1s217.2,82.9,300.1,0S735.5,625.7,652.6,542.9z
		 M400.6,590.9c46.6-46.6,118.8-55.7,175.5-22.1L378.5,766.5C344.9,709.8,354,637.5,400.6,590.9L400.6,590.9z M429,816.9
		l197.6-197.6c40.6,68.5,18,157-50.5,197.6C530.7,843.8,474.3,843.8,429,816.9L429,816.9z"/>
</g>
<g>
	<path class="st0" d="M668.5,532.9c-82.9-82.9-217.2-82.9-300.1,0s-82.9,217.2,0,300.1s217.2,82.9,300.1,0S751.3,615.8,668.5,532.9z
		 M416.5,581c46.6-46.6,118.8-55.7,175.5-22.1L394.4,756.5C360.8,699.8,369.9,627.6,416.5,581L416.5,581z M444.9,807l197.6-197.6
		c40.6,68.5,18,157-50.5,197.6C546.6,833.9,490.2,833.9,444.9,807z"/>
	<path d="M518.5,905.2c-59.3,0-115.1-23.1-157.1-65.1c-42-42-65.1-97.8-65.1-157.1c0-59.3,23.1-115.1,65.1-157.1
		c42-42,97.8-65.1,157.1-65.1c59.3,0,115.1,23.1,157.1,65.1l0,0c41.9,42,65,97.8,65.1,157.1c0,59.4-23.1,115.2-65.1,157.1
		C633.6,882.1,577.8,905.2,518.5,905.2z M518.5,480.7c-54,0-104.8,21-143,59.2c-38.2,38.2-59.2,89-59.2,143c0,54,21,104.8,59.2,143
		c38.2,38.2,89,59.2,143,59.2c54,0,104.8-21,143-59.2c38.2-38.2,59.2-89,59.2-143c0-54-21-104.8-59.2-143l0,0
		C623.2,501.8,572.4,480.7,518.5,480.7z M518.4,837.2c-27.2,0-54.4-7.2-78.6-21.6l-11.1-6.6l215.8-215.8l6.6,11.1
		c43.4,73.2,19.1,168-54,211.3C572.8,830,545.6,837.2,518.4,837.2z M461.5,804.5c39.9,18.7,86.9,16.7,125.4-6.1
		C646.8,762.9,669,687.8,640,626L461.5,804.5z M392.4,772.7l-6.6-11.1c-35.9-60.6-26.2-137.8,23.6-187.7
		c49.9-49.9,127-59.6,187.7-23.6l11.1,6.6L392.4,772.7z M518.5,548.7c-34.7,0-69.1,13.5-94.9,39.3c-40.3,40.3-50.5,101.1-26.7,151.8
		l178.5-178.5C557.2,552.9,537.8,548.7,518.5,548.7z"/>
</g>
<g>
	<path class="st0" d="M834.6,1065.9c-25.2-25.2-66-25.2-91.2,0s-25.2,66,0,91.2s66,25.2,91.2,0
		C859.7,1131.9,859.7,1091.1,834.6,1065.9L834.6,1065.9z M758,1080.5c14.2-14.2,36.1-16.9,53.3-6.7l-60.1,60.1
		C741.1,1116.6,743.8,1094.7,758,1080.5L758,1080.5z M766.6,1149.2l60.1-60.1c12.3,20.8,5.5,47.7-15.4,60.1
		C797.5,1157.4,780.4,1157.4,766.6,1149.2z"/>
	<path d="M789,1179.5c-18.2,0-35.2-7.1-48.1-19.9c-12.8-12.8-19.9-29.9-19.9-48.1s7.1-35.2,19.9-48.1c12.8-12.8,29.9-19.9,48.1-19.9
		s35.2,7.1,48.1,19.9l0,0c26.4,26.5,26.4,69.6,0,96.1C824.2,1172.4,807.2,1179.5,789,1179.5z M789,1050.5
		c-16.3,0-31.6,6.3-43.1,17.9s-17.9,26.8-17.9,43.1s6.3,31.6,17.9,43.1s26.8,17.9,43.1,17.9s31.6-6.3,43.1-17.9
		c23.7-23.8,23.7-62.5,0-86.3C820.6,1056.8,805.3,1050.5,789,1050.5z M789,1158.8c-8.3,0-16.7-2.2-24.1-6.6l-3.9-2.3l66.5-66.5
		l2.3,3.9c13.3,22.5,5.8,51.6-16.6,64.9C805.6,1156.6,797.3,1158.8,789,1158.8z M772.4,1148.3c11.9,5.3,25.7,4.6,37.1-2.1
		c17.8-10.6,24.5-32.8,16.3-51.2L772.4,1148.3z M750.5,1139.6l-2.3-3.9c-10.9-18.7-7.9-42.4,7.3-57.6c15.3-15.3,39-18.3,57.6-7.2
		l3.9,2.3L750.5,1139.6z M789,1071.2c-10.4,0-20.7,4-28.5,11.8c-11.9,11.9-15.1,29.9-8.4,45.1l53.3-53.3
		C800.2,1072.3,794.6,1071.2,789,1071.2z"/>
</g>
<g>
	<path class="st0" d="M286.8,191.6c-25.2-25.2-66-25.2-91.2,0s-25.2,66,0,91.2c25.2,25.2,66,25.2,91.2,0
		C312,257.7,312,216.8,286.8,191.6L286.8,191.6z M210.2,206.3c14.2-14.2,36.1-16.9,53.3-6.7l-60.1,60.1
		C193.3,242.4,196.1,220.4,210.2,206.3z M218.9,274.9l60.1-60.1c12.3,20.8,5.5,47.7-15.4,60.1C249.8,283.1,232.7,283.1,218.9,274.9
		L218.9,274.9z"/>
	<path d="M241.2,305.2c-18.2,0-35.2-7.1-48.1-19.9c-12.8-12.8-19.9-29.9-19.9-48.1c0-18.2,7.1-35.2,19.9-48.1
		c12.8-12.8,29.9-19.9,48.1-19.9c18.2,0,35.2,7.1,48.1,19.9l0,0c0,0,0,0,0,0c12.9,12.9,19.9,30,19.9,48.2c0,18.2-7.1,35.2-19.9,48
		C276.4,298.1,259.4,305.2,241.2,305.2z M241.2,176.2c-16.3,0-31.6,6.3-43.1,17.9c-11.5,11.5-17.9,26.8-17.9,43.1
		c0,16.3,6.3,31.6,17.9,43.1c11.5,11.5,26.8,17.9,43.1,17.9c16.3,0,31.6-6.3,43.1-17.9c11.5-11.5,17.9-26.7,17.9-43
		c0-16.3-6.3-31.7-17.9-43.2h0C272.8,182.5,257.5,176.2,241.2,176.2z M241.3,284.5c-8.3,0-16.7-2.2-24.1-6.6l-3.9-2.3l66.5-66.5
		l2.3,3.9c13.3,22.5,5.8,51.6-16.6,64.9C257.9,282.3,249.6,284.5,241.3,284.5z M224.7,274c11.9,5.3,25.7,4.6,37.1-2.1
		c17.8-10.6,24.5-32.8,16.3-51.2L224.7,274z M202.7,265.4l-2.3-3.9c-10.9-18.7-7.9-42.4,7.3-57.6c15.3-15.3,39-18.3,57.6-7.2
		l3.9,2.3L202.7,265.4z M241.2,197c-10.4,0-20.7,4-28.5,11.8c-11.9,11.9-15.1,29.9-8.4,45.1l53.3-53.3
		C252.4,198.1,246.8,197,241.2,197z"/>
</g>
</svg>
