<?xml version="1.0" encoding="utf-8"?>
<!-- Generator: Adobe Illustrator 25.0.0, SVG Export Plug-In . SVG Version: 6.00 Build 0)  -->
<svg version="1.1" id="Camada_1" xmlns="http://www.w3.org/2000/svg" xmlns:xlink="http://www.w3.org/1999/xlink" x="0px" y="0px"
	 viewBox="0 0 1021 1363" style="enable-background:new 0 0 1021 1363;" xml:space="preserve">
<style type="text/css">
	.st0{fill:#FFFFFF;}
	.st1{fill:#EFE750;}
	.st2{enable-background:new    ;}
</style>
<g>
	<path class="st0" d="M206.5,0h608C928.5,0,1021,92.5,1021,206.5v950c0,114.1-92.5,206.5-206.5,206.5h-608
		C92.5,1363,0,1270.5,0,1156.5v-950C0,92.5,92.5,0,206.5,0z"/>
</g>
<g>
	<path class="st1" d="M251,95.5H770c89.5,0,162,72.5,162,162v847.9c0,89.5-72.5,162-162,162H251c-89.5,0-162-72.5-162-162V257.5
		C89,168,161.5,95.5,251,95.5z"/>
	<path class="st0" d="M770,1273H251c-92.4,0-167.5-75.2-167.5-167.5V257.5C83.5,165.2,158.7,90,251,90H770
		c92.4,0,167.5,75.2,167.5,167.5v847.9C937.5,1197.8,862.3,1273,770,1273z M251,101c-86.3,0-156.5,70.2-156.5,156.5v847.9
		c0,86.3,70.2,156.5,156.5,156.5H770c86.3,0,156.5-70.2,156.5-156.5V257.5c0-86.3-70.2-156.5-156.5-156.5H251z"/>
</g>
<g>
	<path class="st0" d="M587.3,286.4c44.3,0,85.9,10.1,123.6,30.1c157.2,83.4,198.4,314.9,91.7,515.9c-39.2,74-94.3,136-159.3,179.5
		c-30,20.2-62.6,36.3-96.9,47.6c-33.1,10.8-66.4,16.3-98.8,16.3c-44.3,0-85.9-10.1-123.6-30.1c-157.2-83.4-198.4-314.9-91.7-515.9
		c39.2-74,94.3-136,159.3-179.5c30-20.2,62.6-36.3,96.9-47.6C521.7,291.9,554.9,286.4,587.3,286.4L587.3,286.4 M587.3,258.4
		c-142.6,0-294.2,97-379.8,258.3c-114.1,215-67.8,462.9,103.4,553.7c42.7,22.7,89.2,33.4,136.7,33.4c142.6,0,294.2-97,379.8-258.3
		c114.1-215,67.8-462.9-103.4-553.7C681.3,269.1,634.8,258.4,587.3,258.4L587.3,258.4z"/>
</g>
<g class="st2">
	<path class="st0" d="M296.6,221.9c-1.1,16.7-10.9,29.7-29.4,39.1c6.7,4.6,11.6,10.3,14.9,17.2c3.3,6.8,4.7,14.3,4.1,22.3
		c-0.9,15.4-7.1,27.6-18.7,36.9c-11.6,9.2-25.9,13.7-43,13.4c-15.6-0.2-28.1-4.6-37.5-13.4c-9.4-8.8-13.7-20.4-12.9-34.8
		c1.1-19,12.3-33.3,33.5-43c-11.5-9.2-16.9-21.1-16.1-35.8c0.5-9.7,3.4-18.3,8.6-25.8s12.1-13.3,20.9-17.3c8.7-4,18.3-5.9,28.6-5.6
		c14.8,0.3,26.6,4.7,35.2,13.2C293.5,196.7,297.5,207.9,296.6,221.9z M253.6,298c0.9-6.7-0.4-12.3-3.6-16.8s-8.1-6.8-14.6-6.9
		c-7.1-0.2-13.3,2.1-18.4,6.9c-5.1,4.8-8.2,11-9.2,18.8c-0.9,6.7,0.3,12.2,3.6,16.6c3.2,4.3,8.2,6.6,14.7,6.7
		c7.2,0.2,13.3-2.1,18.4-6.8C249.5,311.9,252.6,305.7,253.6,298z M263.1,223.6c0.7-6.4-0.3-11.5-3.1-15.3c-2.7-3.8-6.8-5.8-12.2-5.9
		c-6.2-0.2-11.4,1.9-15.7,6.2c-4.3,4.3-6.9,9.9-7.8,16.9c-0.7,6.3,0.3,11.5,2.9,15.5c2.6,4,6.7,6.1,12.3,6.3
		c6.1,0.2,11.4-2,15.7-6.4C259.6,236.4,262.3,230.7,263.1,223.6z"/>
</g>
<g class="st2">
	<path d="M629.5,594.3c-2.5,38-24.8,67.7-66.9,89.2c15.2,10.5,26.5,23.6,34,39.1c7.5,15.5,10.6,32.5,9.4,50.9
		c-2,35-16.2,63-42.6,84.1c-26.4,21.1-59.1,31.2-98,30.5c-35.5-0.4-64-10.5-85.5-30.5c-21.5-20-31.3-46.4-29.3-79.3
		c2.5-43.2,27.9-75.9,76.3-98c-26.2-20.9-38.5-48.1-36.7-81.7c1.2-22.1,7.8-41.8,19.5-58.9c11.8-17.1,27.6-30.3,47.5-39.4
		c19.9-9.1,41.6-13.4,65.2-12.9c33.7,0.7,60.5,10.8,80.3,30.1C622.5,536.9,631.5,562.5,629.5,594.3z M531.5,767.9
		c2-15.3-0.8-28-8.3-38.2S504.6,714.3,490,714c-16.2-0.4-30.2,4.9-41.9,15.8c-11.7,10.9-18.7,25.1-21,42.7
		c-2,15.3,0.8,27.9,8.2,37.8c7.4,9.9,18.6,15,33.6,15.4c16.4,0.4,30.4-4.8,41.9-15.5C522.3,799.4,529.2,785.4,531.5,767.9z
		 M553.2,598.2c1.6-14.6-0.7-26.2-7-34.8c-6.3-8.6-15.5-13.1-27.8-13.5c-14.1-0.4-26.1,4.3-35.9,14c-9.8,9.7-15.7,22.6-17.7,38.6
		c-1.6,14.4,0.6,26.2,6.6,35.4c6,9.2,15.3,13.9,28,14.3c13.9,0.4,25.9-4.5,35.9-14.5C545.2,627.5,551.2,614.4,553.2,598.2z"/>
</g>
<g class="st2">
	<path class="st0" d="M663.5,572.3c-2.5,38-24.8,67.7-66.9,89.2c15.2,10.5,26.5,23.6,34,39.1c7.5,15.5,10.6,32.5,9.4,50.9
		c-2,35-16.2,63-42.6,84.1c-26.4,21.1-59.1,31.2-98,30.5c-35.5-0.4-64-10.5-85.5-30.5c-21.5-20-31.3-46.4-29.3-79.3
		c2.5-43.2,27.9-75.9,76.3-98c-26.2-20.9-38.5-48.1-36.7-81.7c1.2-22.1,7.8-41.8,19.5-58.9c11.8-17.1,27.6-30.3,47.5-39.4
		c19.9-9.1,41.6-13.4,65.2-12.9c33.7,0.7,60.5,10.8,80.3,30.1C656.5,514.9,665.5,540.5,663.5,572.3z M565.5,745.9
		c2-15.3-0.8-28-8.3-38.2S538.6,692.3,524,692c-16.2-0.4-30.2,4.9-41.9,15.8c-11.7,10.9-18.7,25.1-21,42.7
		c-2,15.3,0.8,27.9,8.2,37.8c7.4,9.9,18.6,15,33.6,15.4c16.4,0.4,30.4-4.8,41.9-15.5C556.3,777.4,563.2,763.4,565.5,745.9z
		 M587.2,576.2c1.6-14.6-0.7-26.2-7-34.8c-6.3-8.6-15.5-13.1-27.8-13.5c-14.1-0.4-26.1,4.3-35.9,14c-9.8,9.7-15.7,22.6-17.7,38.6
		c-1.6,14.4,0.6,26.2,6.6,35.4c6,9.2,15.3,13.9,28,14.3c13.9,0.4,25.9-4.5,35.9-14.5C579.2,605.5,585.2,592.4,587.2,576.2z"/>
</g>
<g class="st2">
	<path class="st0" d="M730.4,1161.6c0.9-14.1,9.2-25.2,24.9-33.1c-5.6-3.9-9.8-8.8-12.6-14.5c-2.8-5.8-3.9-12.1-3.5-18.9
		c0.7-13,6-23.4,15.8-31.2c9.8-7.8,22-11.6,36.4-11.3c13.2,0.1,23.8,3.9,31.8,11.3c8,7.4,11.6,17.2,10.9,29.5
		c-0.9,16.1-10.4,28.2-28.4,36.4c9.8,7.8,14.3,17.9,13.6,30.3c-0.5,8.2-2.9,15.5-7.3,21.9c-4.4,6.4-10.3,11.2-17.7,14.6
		c-7.4,3.4-15.5,5-24.2,4.8c-12.5-0.3-22.5-4-29.8-11.2C733,1182.9,729.6,1173.4,730.4,1161.6z M758.7,1160.2
		c-0.6,5.4,0.3,9.7,2.6,13c2.3,3.2,5.8,4.9,10.3,5c5.2,0.1,9.7-1.6,13.3-5.2c3.6-3.6,5.8-8.4,6.6-14.3c0.6-5.4-0.2-9.7-2.4-13.1
		c-2.2-3.4-5.7-5.2-10.4-5.3c-5.2-0.1-9.6,1.7-13.3,5.4C761.7,1149.3,759.5,1154.2,758.7,1160.2z M766.8,1097.1
		c-0.7,5.7,0.3,10.4,3.1,14.2c2.8,3.8,6.9,5.7,12.3,5.9c6,0.1,11.2-1.8,15.6-5.9c4.3-4,6.9-9.3,7.8-15.9c0.7-5.7-0.3-10.4-3-14
		c-2.8-3.7-6.9-5.6-12.5-5.7c-6.1-0.1-11.3,1.8-15.6,5.8C770.2,1085.4,767.6,1090.6,766.8,1097.1z"/>
</g>
</svg>
