<?xml version="1.0" encoding="utf-8"?>
<!-- Generator: Adobe Illustrator 25.0.0, SVG Export Plug-In . SVG Version: 6.00 Build 0)  -->
<svg version="1.1" id="Camada_1" xmlns="http://www.w3.org/2000/svg" xmlns:xlink="http://www.w3.org/1999/xlink" x="0px" y="0px"
	 viewBox="0 0 1021 1363" style="enable-background:new 0 0 1021 1363;" xml:space="preserve">
<style type="text/css">
	.st0{fill:#FFFFFF;}
	.st1{fill:#EFE750;}
	.st2{enable-background:new    ;}
</style>
<g>
	<path class="st0" d="M206.5,0h608C928.5,0,1021,92.5,1021,206.5v950c0,114.1-92.5,206.5-206.5,206.5h-608
		C92.5,1363,0,1270.5,0,1156.5v-950C0,92.5,92.5,0,206.5,0z"/>
</g>
<g>
	<path class="st1" d="M251,95.5H770c89.5,0,162,72.5,162,162v847.9c0,89.5-72.5,162-162,162H251c-89.5,0-162-72.5-162-162V257.5
		C89,168,161.5,95.5,251,95.5z"/>
	<path class="st0" d="M770,1273H251c-92.4,0-167.5-75.2-167.5-167.5V257.5C83.5,165.2,158.7,90,251,90H770
		c92.4,0,167.5,75.2,167.5,167.5v847.9C937.5,1197.8,862.3,1273,770,1273z M251,101c-86.3,0-156.5,70.2-156.5,156.5v847.9
		c0,86.3,70.2,156.5,156.5,156.5H770c86.3,0,156.5-70.2,156.5-156.5V257.5c0-86.3-70.2-156.5-156.5-156.5H251z"/>
</g>
<g>
	<path class="st0" d="M587.3,286.4c44.3,0,85.9,10.1,123.6,30.1c157.2,83.4,198.4,314.9,91.7,515.9c-39.2,74-94.3,136-159.3,179.5
		c-30,20.2-62.6,36.3-96.9,47.6c-33.1,10.8-66.4,16.3-98.8,16.3c-44.3,0-85.9-10.1-123.6-30.1c-157.2-83.4-198.4-314.9-91.7-515.9
		c39.2-74,94.3-136,159.3-179.5c30-20.2,62.6-36.3,96.9-47.6C521.7,291.9,554.9,286.4,587.3,286.4L587.3,286.4 M587.3,258.4
		c-142.6,0-294.2,97-379.8,258.3c-114.1,215-67.8,462.9,103.4,553.7c42.7,22.7,89.2,33.4,136.7,33.4c142.6,0,294.2-97,379.8-258.3
		c114.1-215,67.8-462.9-103.4-553.7C681.3,269.1,634.8,258.4,587.3,258.4L587.3,258.4z"/>
</g>
<g class="st2">
	<path class="st0" d="M185,263.8l23-86.5h93.5l-4.5,28.3h-65.7l-11.3,37c7-4.4,15.2-6.6,24.7-6.6c14.6,0,26,5.2,34,15.6
		c8,10.4,11.4,24.1,10.2,41.1c-0.9,11.3-4.2,21.4-9.9,30.4c-5.7,9-13.1,15.9-22.4,20.8c-9.2,4.9-19.4,7.2-30.5,6.9
		c-9.6-0.1-18.4-2.3-26.3-6.6s-14-10.3-18.4-18c-4.4-7.6-6.6-16.2-6.7-25.6h32.5c0.3,7,2.2,12.4,5.8,16.4c3.5,4,8.3,6,14.3,6.2
		c7.8,0.2,14.3-2.6,19.3-8.6c5.1-6,8.1-13.9,9.1-24c0.9-8.9-0.4-16-4.1-21.1c-3.6-5.2-9.2-7.8-16.6-8c-8.3-0.2-16,2.9-23,9.2
		L185,263.8z"/>
</g>
<g class="st2">
	<path d="M375.1,689.9l52.5-197.1h213.1l-10.2,64.5H480.9l-25.7,84.3c15.9-10,34.6-15,56.2-15c33.4,0,59.2,11.8,77.5,35.5
		c18.3,23.7,26,54.8,23.2,93.6c-2.1,25.7-9.7,48.8-22.6,69.3c-12.9,20.5-29.9,36.3-51,47.4c-21.1,11.1-44.3,16.3-69.6,15.8
		c-22-0.2-41.9-5.2-59.8-15.1c-17.9-9.9-31.9-23.6-41.9-41c-10-17.4-15.1-36.8-15.3-58.2H426c0.7,15.9,5.1,28.3,13.1,37.4
		c8,9,18.9,13.7,32.7,14.1c17.8,0.5,32.5-6,44-19.5c11.5-13.6,18.4-31.8,20.8-54.6c2.1-20.3-0.9-36.4-9.2-48.2
		c-8.3-11.8-20.9-17.8-37.9-18.2c-18.9-0.4-36.4,6.6-52.5,20.9L375.1,689.9z"/>
</g>
<g class="st2">
	<path class="st0" d="M409.1,667.9l52.5-197.1h213.1l-10.2,64.5H514.9l-25.7,84.3c15.9-10,34.6-15,56.2-15
		c33.4,0,59.2,11.8,77.5,35.5c18.3,23.7,26,54.8,23.2,93.6c-2.1,25.7-9.7,48.8-22.6,69.3c-12.9,20.5-29.9,36.3-51,47.4
		c-21.1,11.1-44.3,16.3-69.6,15.8c-22-0.2-41.9-5.2-59.8-15.1c-17.9-9.9-31.9-23.6-41.9-41c-10-17.4-15.1-36.8-15.3-58.2H460
		c0.7,15.9,5.1,28.3,13.1,37.4c8,9,18.9,13.7,32.7,14.1c17.8,0.5,32.5-6,44-19.5c11.5-13.6,18.4-31.8,20.8-54.6
		c2.1-20.3-0.9-36.4-9.2-48.2c-8.3-11.8-20.9-17.8-37.9-18.2c-18.9-0.4-36.4,6.6-52.5,20.9L409.1,667.9z"/>
</g>
<g class="st2">
	<path class="st0" d="M824.9,1126.1l-19.5,73.2h-79.2l3.8-24h55.6l9.6-31.3c-5.9,3.7-12.9,5.6-20.9,5.6c-12.4,0-22-4.4-28.8-13.2
		c-6.8-8.8-9.7-20.4-8.6-34.8c0.8-9.6,3.6-18.1,8.4-25.8c4.8-7.6,11.1-13.5,19-17.6c7.8-4.1,16.5-6.1,25.9-5.9
		c8.2,0.1,15.6,1.9,22.2,5.6c6.7,3.7,11.9,8.8,15.6,15.2c3.7,6.5,5.6,13.7,5.7,21.6H806c-0.3-5.9-1.9-10.5-4.9-13.9
		c-3-3.3-7-5.1-12.1-5.2c-6.6-0.2-12.1,2.2-16.4,7.3c-4.3,5-6.8,11.8-7.7,20.3c-0.8,7.6,0.3,13.5,3.4,17.9s7.8,6.6,14.1,6.8
		c7,0.1,13.5-2.5,19.5-7.8L824.9,1126.1z"/>
</g>
</svg>
