<?xml version="1.0" encoding="utf-8"?>
<!-- Generator: Adobe Illustrator 25.0.0, SVG Export Plug-In . SVG Version: 6.00 Build 0)  -->
<svg version="1.1" id="Camada_1" xmlns="http://www.w3.org/2000/svg" xmlns:xlink="http://www.w3.org/1999/xlink" x="0px" y="0px"
	 viewBox="0 0 1021 1363" style="enable-background:new 0 0 1021 1363;" xml:space="preserve">
<style type="text/css">
	.st0{fill:#FFFFFF;}
	.st1{fill:#0000FF;}
</style>
<g>
	<path class="st0" d="M206.5,0h608C928.5,0,1021,92.5,1021,206.5v950c0,114.1-92.5,206.5-206.5,206.5h-608
		C92.5,1363,0,1270.5,0,1156.5v-950C0,92.5,92.5,0,206.5,0z"/>
</g>
<g>
	<path class="st1" d="M251,95.5H770c89.5,0,162,72.5,162,162v847.9c0,89.5-72.5,162-162,162H251c-89.5,0-162-72.5-162-162V257.5
		C89,168,161.5,95.5,251,95.5z"/>
</g>
<g>
	<path class="st0" d="M587.3,286.4c44.3,0,85.9,10.1,123.6,30.1c157.2,83.4,198.4,314.9,91.7,515.9c-39.2,74-94.3,136-159.3,179.5
		c-30,20.2-62.6,36.3-96.9,47.6c-33.1,10.8-66.4,16.3-98.8,16.3c-44.3,0-85.9-10.1-123.6-30.1c-157.2-83.4-198.4-314.9-91.7-515.9
		c39.2-74,94.3-136,159.3-179.5c30-20.2,62.6-36.3,96.9-47.6C521.7,291.9,554.9,286.4,587.3,286.4L587.3,286.4 M587.3,258.4
		c-142.6,0-294.2,97-379.8,258.3c-114.1,215-67.8,462.9,103.4,553.7c42.7,22.7,89.2,33.4,136.7,33.4c142.6,0,294.2-97,379.8-258.3
		c114.1-215,67.8-462.9-103.4-553.7C681.3,269.1,634.8,258.4,587.3,258.4L587.3,258.4z"/>
</g>
<g>
	<path class="st0" d="M309.8,926.7l216.4,12.9l-36.3-50.3c15.2-10.6,81.9-59,107.5-126.3c34.5-90.8-4.3-133.5-4.3-133.5L402,767.6
		l-36.2-50.2L309.8,926.7z"/>
	<path d="M544.5,949.7l-246.3-14.6L362,696.7L404,755l190.3-137.6l5.4,6c1.7,1.9,42.1,48,6.1,142.8c-23,60.5-78.1,106.5-103.4,125.2
		L544.5,949.7z M321.3,918.4l186.4,11.1l-30.5-42.3l7.5-5.2c18.4-12.8,80.4-59.5,104.2-122.2c24.7-65,10.2-103.2,1.9-117.7
		L400,780.1L369.6,738L321.3,918.4z"/>
</g>
<g>
	<path class="st0" d="M711.2,436.3l-216.4-12.9l36.3,50.3c-15.2,10.6-81.9,59-107.5,126.3c-34.5,90.8,4.3,133.5,4.3,133.5L619,595.4
		l36.2,50.2L711.2,436.3z"/>
	<path d="M426.7,745.6l-5.4-6c-1.7-1.9-42.1-48-6.1-142.8c23-60.5,78.1-106.5,103.4-125.2l-42.1-58.3l246.3,14.6L659,666.3L617,608
		L426.7,745.6z M513.2,433.5l30.5,42.3l-7.5,5.2c-18.4,12.8-80.4,59.5-104.2,122.2c-24.7,65-10.2,103.2-1.9,117.7l190.9-138
		l30.4,42.2l48.2-180.4L513.2,433.5z"/>
</g>
<g>
	<path class="st0" d="M734,1189.4l75.6,4.5l-12.7-17.6c5.3-3.7,28.6-20.6,37.5-44.1c12.1-31.7-1.5-46.6-1.5-46.6l-66.7,48.2
		l-12.7-17.5L734,1189.4z"/>
	<path d="M818.8,1199l-90.5-5.4l23.4-87.6l15.6,21.6l66.3-48l2.7,3c0.6,0.7,15.3,17.4,2.4,51.3c-7.8,20.4-25.3,35.9-35.5,43.5
		L818.8,1199z M739.8,1185.3l60.6,3.6l-9.8-13.6l3.8-2.6c6.4-4.4,27.7-20.5,35.9-42c7.8-20.5,4.2-33,1.5-38.6l-66.5,48.1l-9.7-13.5
		L739.8,1185.3z"/>
</g>
<g>
	<path class="st0" d="M874.2,1018.2l-75.6-4.5l12.7,17.6c-5.3,3.7-28.6,20.6-37.5,44.1c-12.1,31.7,1.5,46.6,1.5,46.6l66.7-48.2
		l12.7,17.5L874.2,1018.2z"/>
	<path d="M774.7,1128l-2.7-3c-0.6-0.7-15.3-17.4-2.4-51.3c7.8-20.5,25.3-35.9,35.5-43.5l-15.6-21.6l90.5,5.4l-23.4,87.6L841,1080
		L774.7,1128z M807.9,1018.7l9.8,13.6l-3.8,2.6c-6.4,4.4-27.7,20.5-35.9,42c-7.8,20.5-4.2,33-1.5,38.6l66.5-48.1l9.7,13.5l15.7-58.6
		L807.9,1018.7z"/>
</g>
<g>
	<path class="st0" d="M145,344l75.6,4.5L207.9,331c5.3-3.7,28.6-20.6,37.5-44.1c12.1-31.7-1.5-46.6-1.5-46.6l-66.7,48.2l-12.7-17.5
		L145,344z"/>
	<path d="M229.7,353.6l-90.5-5.4l23.4-87.6l15.6,21.6l66.3-48l2.7,3c0.6,0.7,15.3,17.4,2.4,51.3c-7.8,20.4-25.3,35.9-35.5,43.5
		L229.7,353.6z M150.8,339.9l60.6,3.6l-9.8-13.6l3.8-2.6c6.4-4.4,27.7-20.5,35.9-42c7.8-20.5,4.2-33,1.5-38.6l-66.5,48.1l-9.8-13.5
		L150.8,339.9z"/>
</g>
<g>
	<path class="st0" d="M285.2,172.7l-75.6-4.5l12.7,17.6c-5.3,3.7-28.6,20.6-37.5,44.1c-12.1,31.7,1.5,46.6,1.5,46.6l66.7-48.2
		l12.7,17.5L285.2,172.7z"/>
	<path d="M185.6,282.6l-2.7-3c-0.6-0.7-15.3-17.4-2.4-51.3c7.8-20.4,25.3-35.9,35.5-43.5l-15.6-21.6l90.5,5.4l-23.4,87.6L252,234.6
		L185.6,282.6z M218.8,173.3l9.8,13.6l-3.8,2.6c-6.4,4.4-27.7,20.5-35.9,42c-7.8,20.5-4.2,33-1.5,38.6L254,222l9.7,13.5l15.7-58.6
		L218.8,173.3z"/>
</g>
</svg>
