<?xml version="1.0" encoding="utf-8"?>
<!-- Generator: Adobe Illustrator 25.0.0, SVG Export Plug-In . SVG Version: 6.00 Build 0)  -->
<svg version="1.1" id="Camada_1" xmlns="http://www.w3.org/2000/svg" xmlns:xlink="http://www.w3.org/1999/xlink" x="0px" y="0px"
	 viewBox="0 0 1021 1363" style="enable-background:new 0 0 1021 1363;" xml:space="preserve">
<style type="text/css">
	.st0{fill:#FFFFFF;}
	.st1{fill:#0000FF;}
	.st2{enable-background:new    ;}
</style>
<g>
	<path class="st0" d="M206.5,0h608C928.5,0,1021,92.5,1021,206.5v950c0,114.1-92.5,206.5-206.5,206.5h-608
		C92.5,1363,0,1270.5,0,1156.5v-950C0,92.5,92.5,0,206.5,0z"/>
</g>
<g>
	<path class="st1" d="M251,95.5H770c89.5,0,162,72.5,162,162v847.9c0,89.5-72.5,162-162,162H251c-89.5,0-162-72.5-162-162V257.5
		C89,168,161.5,95.5,251,95.5z"/>
</g>
<g>
	
		<ellipse transform="matrix(0.4687 -0.8834 0.8834 0.4687 -326.7107 818.9845)" class="st0" cx="517.5" cy="681.1" rx="440.7" ry="350.8"/>
</g>
<g>
	<path class="st1" d="M408.7,868.9l43-203.7c8-38.1,45.4-62.4,83.5-54.4l130.5,27.5c38.1,8,62.4,45.4,54.4,83.5l-43,203.7
		c-8,38.1-45.4,62.4-83.5,54.4l-130.5-27.5C425,944.4,400.7,907,408.7,868.9z"/>
	<path class="st0" d="M608.3,989c-5.4,0-10.8-0.6-16.3-1.7l-130.5-27.5c-20.4-4.3-37.9-16.3-49.2-33.7c-11.4-17.4-15.3-38.3-11-58.7
		l43-203.7c4.3-20.4,16.3-37.9,33.7-49.2c17.4-11.4,38.3-15.3,58.7-11L667.2,631c42.1,8.9,69.1,50.3,60.2,92.4l-43,203.7
		c-4.3,20.4-16.3,37.9-33.7,49.2C637.9,984.7,623.2,989,608.3,989z M408.7,868.9l7.3,1.5c-3.5,16.5-0.3,33.3,8.8,47.4
		c9.2,14.1,23.3,23.8,39.8,27.2l130.5,27.5c16.5,3.5,33.3,0.3,47.4-8.8c14.1-9.2,23.8-23.3,27.2-39.8l43-203.7
		c7.2-34-14.6-67.4-48.6-74.6l-130.5-27.5c-16.5-3.5-33.3-0.3-47.4,8.8c-14.1,9.2-23.8,23.3-27.2,39.8l-43,203.7L408.7,868.9z"/>
</g>
<g>
	<path class="st1" d="M300.9,641.2l43-203.7c8-38.1,45.4-62.4,83.5-54.4l130.5,27.5c38.1,8,62.4,45.4,54.4,83.5l-43,203.7
		c-8,38.1-45.4,62.4-83.5,54.4l-130.5-27.5C317.2,716.6,292.9,679.2,300.9,641.2z"/>
	<path class="st0" d="M500.4,761.2c-5.3,0-10.7-0.5-16.1-1.7L353.8,732c-42.1-8.9-69.1-50.3-60.2-92.4l7.3,1.5l-7.3-1.5l43-203.7
		c4.3-20.4,16.3-37.9,33.7-49.2c17.4-11.4,38.3-15.3,58.7-11l130.5,27.5c42.1,8.9,69.1,50.3,60.2,92.4l-43,203.7
		C568.9,736,536.4,761.2,500.4,761.2z M412.9,389c-29.1,0-55.3,20.4-61.6,50l-43,203.7c-7.2,34,14.6,67.4,48.6,74.6l130.5,27.5
		c4.4,0.9,8.7,1.4,13,1.4c29.1,0,55.3-20.4,61.6-50l43-203.7c3.5-16.5,0.3-33.3-8.8-47.4c-9.2-14.1-23.3-23.8-39.8-27.2l-130.5-27.5
		C421.5,389.4,417.2,389,412.9,389z"/>
</g>
<g class="st2">
	<path class="st0" d="M210.5,219.8h27.3l-3.6,20.4H207l-5.5,31.9h-21l5.5-31.9h-27.5l3.6-20.4h27.4l5.3-30.5h21L210.5,219.8z"/>
	<path class="st0" d="M316.2,283.4h-75.8L243,267l40.4-37.9c8.3-7.8,13.8-14.1,16.5-18.9c2.7-4.8,3.7-9.6,3-14.2
		c-1.1-6.5-4.8-9.8-11.2-9.9c-5-0.1-9.2,1.6-12.5,5.2s-5.4,8.3-6.1,14.1l-22,0.1c0.4-7.1,2.5-13.5,6.3-19.3
		c3.8-5.8,8.9-10.3,15.2-13.5s13.2-4.8,20.5-4.7c10.6,0.2,18.8,3.2,24.7,8.9c5.9,5.7,8.5,13.4,7.8,22.9c-0.8,10.7-7.2,21.9-19,33.6
		l-11.2,10.7l-23.3,20.9l47,0.2L316.2,283.4z"/>
</g>
<g class="st2">
	<path class="st0" d="M795.6,1155.6h-27.3l3.6-20.4h27.3l5.5-31.9h21l-5.5,31.9h27.5l-3.6,20.4h-27.4l-5.3,30.5h-21L795.6,1155.6z"
		/>
	<path class="st0" d="M689.9,1091.9h75.8l-2.6,16.4l-40.4,37.9c-8.3,7.8-13.8,14.1-16.5,18.9c-2.7,4.8-3.7,9.6-3,14.2
		c1.1,6.5,4.8,9.8,11.2,9.9c5,0.1,9.2-1.6,12.5-5.2s5.4-8.3,6.1-14.1l22-0.1c-0.4,7.1-2.5,13.5-6.3,19.3
		c-3.8,5.8-8.9,10.3-15.2,13.5s-13.2,4.8-20.5,4.7c-10.6-0.2-18.8-3.2-24.7-8.9c-5.9-5.7-8.5-13.4-7.8-22.9
		c0.8-10.7,7.2-21.9,19-33.6l11.2-10.7l23.3-20.9l-47-0.2L689.9,1091.9z"/>
</g>
</svg>
