<?xml version="1.0" encoding="utf-8"?>
<!-- Generator: Adobe Illustrator 25.0.0, SVG Export Plug-In . SVG Version: 6.00 Build 0)  -->
<svg version="1.1" id="Camada_1" xmlns="http://www.w3.org/2000/svg" xmlns:xlink="http://www.w3.org/1999/xlink" x="0px" y="0px"
	 viewBox="0 0 1021 1363" style="enable-background:new 0 0 1021 1363;" xml:space="preserve">
<style type="text/css">
	.st0{fill:#FFFFFF;}
	.st1{fill:#0000FF;}
	.st2{enable-background:new    ;}
</style>
<g>
	<path class="st0" d="M206.5,0h608C928.5,0,1021,92.5,1021,206.5v950c0,114.1-92.5,206.5-206.5,206.5h-608
		C92.5,1363,0,1270.5,0,1156.5v-950C0,92.5,92.5,0,206.5,0z"/>
</g>
<g>
	<path class="st1" d="M251,95.5H770c89.5,0,162,72.5,162,162v847.9c0,89.5-72.5,162-162,162H251c-89.5,0-162-72.5-162-162V257.5
		C89,168,161.5,95.5,251,95.5z"/>
</g>
<g>
	<path class="st0" d="M587.3,286.4c44.3,0,85.9,10.1,123.6,30.1c157.2,83.4,198.4,314.9,91.7,515.9c-39.2,74-94.3,136-159.3,179.5
		c-30,20.2-62.6,36.3-96.9,47.6c-33.1,10.8-66.4,16.3-98.8,16.3c-44.3,0-85.9-10.1-123.6-30.1c-157.2-83.4-198.4-314.9-91.7-515.9
		c39.2-74,94.3-136,159.3-179.5c30-20.2,62.6-36.3,96.9-47.6C521.7,291.9,554.9,286.4,587.3,286.4L587.3,286.4 M587.3,258.4
		c-142.6,0-294.2,97-379.8,258.3c-114.1,215-67.8,462.9,103.4,553.7c42.7,22.7,89.2,33.4,136.7,33.4c142.6,0,294.2-97,379.8-258.3
		c114.1-215,67.8-462.9-103.4-553.7C681.3,269.1,634.8,258.4,587.3,258.4L587.3,258.4z"/>
</g>
<g class="st2">
	<path class="st0" d="M216.5,247.8l15.9,0.1c8.1,0,14.8-2.2,20.3-6.7c5.4-4.5,8.6-10.5,9.5-18c0.8-6.3-0.4-11.4-3.6-15.2
		c-3.2-3.8-8-5.8-14.4-5.9c-6.4-0.2-11.9,1.6-16.5,5.2c-4.6,3.6-7.4,8.4-8.4,14.2l-33.1,0.2c0.7-13.8,6.6-25.1,17.8-33.9
		s24.7-13.1,40.7-13c16.1,0.3,28.9,4.8,38.3,13.5c9.4,8.7,13.7,20.2,12.8,34.5c-1.1,16.3-11.5,29.1-31.1,38.3
		c7.7,3.7,13.3,8.9,16.9,15.7c3.6,6.8,5.1,14.3,4.6,22.6c-0.5,10.3-3.7,19.4-9.5,27.3c-5.8,7.8-13.6,13.8-23.3,18
		c-9.7,4.2-20.2,6.2-31.5,5.9c-15.3-0.2-27.7-4.7-37.4-13.7s-14.4-20.8-14.2-35.5H203c-0.2,6.3,1.6,11.5,5.3,15.6
		c3.7,4,8.9,6.1,15.6,6.3c7.7,0.2,14.3-2,19.7-6.5c5.5-4.5,8.7-10.4,9.6-17.7c1-7.8-0.4-13.9-4.2-18c-3.8-4.2-9.6-6.4-17.3-6.6
		l-19.5-0.1L216.5,247.8z"/>
</g>
<g class="st2">
	<path d="M446.9,653.5l36.1,0.3c18.4,0,33.8-5.1,46.2-15.3c12.4-10.2,19.6-23.8,21.6-41c1.8-14.5-1-26-8.3-34.7
		c-7.3-8.7-18.3-13.2-32.9-13.5c-14.6-0.4-27.2,3.6-37.6,11.9c-10.4,8.3-16.8,19.1-19.1,32.3l-75.5,0.5
		c1.6-31.4,15.1-57.2,40.6-77.2s56.4-29.9,92.8-29.6c36.8,0.7,65.9,11,87.3,30.8s31.1,46.1,29.2,78.7c-2.5,37.1-26.2,66.2-71,87.3
		c17.5,8.4,30.3,20.3,38.4,35.7c8.1,15.4,11.6,32.6,10.6,51.5c-1.3,23.6-8.5,44.3-21.7,62.1c-13.2,17.9-30.9,31.6-53,41.1
		c-22.1,9.5-46.1,14.1-71.8,13.5c-34.8-0.4-63.2-10.8-85.1-31.2c-22-20.4-32.8-47.4-32.4-81h75c-0.4,14.5,3.7,26.3,12.2,35.5
		c8.5,9.2,20.3,14,35.5,14.3c17.5,0.4,32.5-4.6,45-14.9c12.5-10.3,19.8-23.8,22-40.4c2.3-17.9-0.8-31.6-9.5-41.1
		c-8.7-9.5-21.8-14.5-39.5-15l-44.4-0.3L446.9,653.5z"/>
</g>
<g class="st2">
	<path class="st0" d="M480.9,631.5l36.1,0.3c18.4,0,33.8-5.1,46.2-15.3c12.4-10.2,19.6-23.8,21.6-41c1.8-14.5-1-26-8.3-34.7
		c-7.3-8.7-18.3-13.2-32.9-13.5c-14.6-0.4-27.2,3.6-37.6,11.9c-10.4,8.3-16.8,19.1-19.1,32.3l-75.5,0.5
		c1.6-31.4,15.1-57.2,40.6-77.2s56.4-29.9,92.8-29.6c36.8,0.7,65.9,11,87.3,30.8s31.1,46.1,29.2,78.7c-2.5,37.1-26.2,66.2-71,87.3
		c17.5,8.4,30.3,20.3,38.4,35.7c8.1,15.4,11.6,32.6,10.6,51.5c-1.3,23.6-8.5,44.3-21.7,62.1c-13.2,17.9-30.9,31.6-53,41.1
		c-22.1,9.5-46.1,14.1-71.8,13.5c-34.8-0.4-63.2-10.8-85.1-31.2c-22-20.4-32.8-47.4-32.4-81h75c-0.4,14.5,3.7,26.3,12.2,35.5
		c8.5,9.2,20.3,14,35.5,14.3c17.5,0.4,32.5-4.6,45-14.9c12.5-10.3,19.8-23.8,22-40.4c2.3-17.9-0.8-31.6-9.5-41.1
		c-8.7-9.5-21.8-14.5-39.5-15l-44.4-0.3L480.9,631.5z"/>
</g>
<g class="st2">
	<path class="st0" d="M798.2,1139.6l-13.4-0.1c-6.8,0-12.6,1.9-17.2,5.7c-4.6,3.8-7.3,8.9-8,15.2c-0.7,5.4,0.4,9.7,3.1,12.9
		c2.7,3.2,6.8,4.9,12.2,5c5.4,0.1,10.1-1.3,14-4.4c3.9-3.1,6.3-7.1,7.1-12l28.1-0.2c-0.6,11.7-5.6,21.2-15.1,28.7
		c-9.5,7.5-20.9,11.1-34.5,11c-13.7-0.3-24.5-4.1-32.4-11.4c-8-7.4-11.6-17.1-10.8-29.3c0.9-13.8,9.7-24.6,26.4-32.4
		c-6.5-3.1-11.3-7.5-14.3-13.3c-3-5.7-4.3-12.1-3.9-19.2c0.5-8.8,3.2-16.5,8.1-23.1c4.9-6.6,11.5-11.7,19.7-15.3
		c8.2-3.5,17.1-5.2,26.7-5c12.9,0.1,23.5,4,31.6,11.6s12.2,17.6,12,30.1h-27.9c0.1-5.4-1.4-9.8-4.5-13.2c-3.2-3.4-7.5-5.2-13.2-5.3
		c-6.5-0.1-12.1,1.7-16.7,5.5c-4.6,3.8-7.4,8.8-8.2,15c-0.9,6.6,0.3,11.7,3.5,15.3c3.2,3.5,8.1,5.4,14.7,5.6l16.5,0.1L798.2,1139.6z
		"/>
</g>
</svg>
