<?xml version="1.0" encoding="utf-8"?>
<!-- Generator: Adobe Illustrator 25.0.0, SVG Export Plug-In . SVG Version: 6.00 Build 0)  -->
<svg version="1.1" id="Camada_1" xmlns="http://www.w3.org/2000/svg" xmlns:xlink="http://www.w3.org/1999/xlink" x="0px" y="0px"
	 viewBox="0 0 1021 1363" style="enable-background:new 0 0 1021 1363;" xml:space="preserve">
<style type="text/css">
	.st0{fill:#FFFFFF;}
	.st1{fill:#EC1F26;}
	.st2{fill:#EC1D25;}
	.st3{fill:#F48488;}
	.st4{fill:#EC1E26;}
	.st5{fill:#040404;stroke:#FFFFFF;stroke-width:52;stroke-miterlimit:10;}
	.st6{fill:#040404;}
	.st7{fill:#F6F5F0;}
	.st8{fill:#F6F5EF;}
	.st9{fill:#555557;}
	.st10{fill:#565658;}
	.st11{fill:#535355;}
	.st12{fill:#F7D929;}
	.st13{fill:#050505;}
</style>
<path class="st0" d="M206.5,0h608C928.5,0,1021,92.5,1021,206.5v950c0,114.1-92.5,206.5-206.5,206.5h-608
	C92.5,1363,0,1270.5,0,1156.5v-950C0,92.5,92.5,0,206.5,0z"/>
<path d="M251,95.5H770c89.5,0,162,72.5,162,162v847.9c0,89.5-72.5,162-162,162H251c-89.5,0-162-72.5-162-162V257.5
	C89,168,161.5,95.5,251,95.5z"/>
<path class="st0" d="M840.6,601.5c0.4,16.7-6.7,23.3-23.2,21.4c-13-1.5-24.4-6.3-33.5-15.9c-17.7-18.8-26.3-41.3-26.9-66.9
	c-0.3-12.1,6.4-18.6,18.7-18.8c14.6-0.2,27.1,5.3,37.5,15.4C829.4,552.4,840,577.6,840.6,601.5z"/>
<path class="st1" d="M820.7,588.1c0.2,8.4-3.4,11.7-11.7,10.8c-6.5-0.8-12.3-3.2-16.8-8c-8.9-9.4-13.2-20.8-13.5-33.6
	c-0.1-6.1,3.2-9.3,9.4-9.4c7.4-0.1,13.6,2.7,18.9,7.7C815.1,563.4,820.4,576,820.7,588.1z"/>
<path class="st2" d="M344.7,1024.1c-6.6-1.2-13.1-2.9-19.8-3.7c-37.3-4.6-72.9-14.9-106.2-32.5c-1.1-0.6-2.2-1.3-3.2-2
	c-0.1-0.1,0-0.6,0-1.5c21.3,1.8,42.8-0.1,63.5-5.7c33.2-9.1,62.9-24.4,87.2-49.2c12.2-12.4,24.2-24.8,37.5-38.3
	c2.8,7,4.7,12.2,6.9,17.2c4.2,10,10.4,13.1,20.2,9.6c26.4-9.6,52.7-19.3,79-29.3c3.8-1.6,7.2-4,10-6.9c11.4-11,22.3-22.4,33.7-33.4
	c6-5.8,7.3-11.8,4.1-19.6c-4.8-11.6-9-23.4-14.2-37.1c3.6,2.1,5.6,3.1,7.5,4.3c21.3,14.1,42.8,28.1,63.8,42.6
	c7.2,5,13.8,6.1,22.1,2.9c19.4-7.6,39.1-14.3,58.5-21.9c4.9-2,9.5-4.8,13.3-8.4c11.1-10.4,21.4-21.5,32.5-31.9
	c2.3-2.2,6.8-3.8,9.7-3.2c30.2,6,59.7,3.7,88.9-5.5c1.7-0.5,3.6-0.6,7.5-1.1c-4.2,5.6-7.2,9.8-10.4,13.8
	c-93.5,118.5-213.9,194.5-361.2,228c-23,5.2-46.8,7.2-70.2,10.8c-1.9,0.5-3.8,1.1-5.7,1.9L344.7,1024.1L344.7,1024.1z"/>
<path class="st3" d="M361.8,1024.1L361.8,1024.1z"/>
<path class="st4" d="M790.5,376.2C724.3,386.8,678.7,427,637.9,476c-2.9-7.6-5.5-14.6-8.3-21.5c-4.6-11-10.7-13.9-21.7-9.9
	c-26.1,9.6-52,19.4-78,29.1c-0.3,0.1-0.6,0.2-0.9,0.4c-15.4,15.2-31.1,30.3-46,46c-2,2.1-1.1,7.9,0,11.5c2.3,7.9,5.5,15.4,8.3,23.2
	c0.8,2.2,1.2,4.6,2.4,9c-19.3-12.5-36.6-23.9-54.1-35.2c-24-15.5-17.7-14.8-43.9-5.1c-44.7,16.6-89.2,33.4-133.7,50.5
	c-4.9,2-9.4,4.9-13.3,8.6c-10.6,10-20.3,20.9-31.1,30.6c-8.4,7.5-9.6,15.1-5.8,25.3c20.7,54.5,41.2,109.2,61.5,163.9
	c3.8,10.2,6.5,20.8,10,32.4c-15,1.1-25.6-3.7-33.1-13.9c-5-6.9-9-14.4-12-22.4c-21.6-56.9-42.9-114-64.4-170.9
	c-1.9-5.1-5.3-9.6-8.6-15.5c16.1-25.1,35.7-49.4,57.2-72.2c52.2-55.3,113.2-98.6,180.9-132.9c53.4-27.1,109.2-46.2,168.6-54.4
	c73.3-10.1,145-4.1,214.7,21.8C787.6,374.7,788.4,375.2,790.5,376.2z"/>
<path class="st5" d="M729.5,761.7c1,2.9,2,5.9,3.1,8.9c-11.9,11.9-23.6,23.8-35.6,35.5c-2.5,2.3-5.5,4.1-8.8,5.2
	c-18.3,6.8-36.7,13.1-54.9,20.1c-5.4,2.1-9.1,1.5-13.8-1.7c-34-22.7-68.2-45.2-102.4-67.7c-0.7-0.3-1.4-0.5-2.1-0.8l0.4,2.4
	c8.5,23,16.8,46,25.5,68.8c2.3,6,1.5,9.6-3,14.8c-19.9,23.2-43.8,39.1-73.4,47.3c-13.9,3.8-27.1,10-41.5,15.5
	c-5.3-14.1-10.4-27.5-15.2-40c-18.2,18.4-36.3,37.3-55.1,55.5c-36.7,35.3-80.9,52.2-131.7,49.5c-38.5-2-68.5-21.4-90-52.6
	c-11.4-16.6-20.8-34.5-28.1-53.3c-22-56.3-42.6-113.2-63.7-169.9c-0.4-1.1-0.8-2.3-1.9-5.5c11.9-11.3,24.2-23.1,36.7-34.7
	c1.9-1.7,4-3,6.4-3.9c25.9-9.7,51.8-19.2,78.4-29c7.3,19.2,14.5,38.2,21.6,57.3c14.6,39.1,29.3,78.2,43.9,117.3
	c4.8,12.8,10.9,24.8,21.3,34.1c11.3,10.2,24.7,13.5,39.5,11.6c7.3-0.9,11.3-5.3,10.3-13.2c-1.2-10.2-2.9-20.7-6.4-30.3
	c-20.5-55.9-41.4-111.7-62.6-167.3c-2.6-6.9-1.2-10.7,3.5-16.3c20.2-24.3,45.6-38.9,75.6-48.4c35-11.1,69.1-24.8,103.5-37.7
	c5.4-2,9.1-1.4,13.9,1.7c32.1,21.2,64.3,42,98.2,64c-1.1-3.8-1.5-6.1-2.3-8.2c-7.2-19.5-14.3-39-21.9-58.4
	c-1.9-4.8-1.4-7.9,2.4-11.6c10.2-9.9,20-20.2,30.1-30.3c1.5-1.5,3.1-3.4,5-4.1c26.4-10,52.9-19.8,80.2-29.9l19.5,51
	c10.4-13.7,19.6-27.5,30.5-39.8c24.6-27.9,52.3-52.4,87.3-66.7c84-34.4,169.9,4.1,208.7,81.9c31.4,62.8,29.3,124.9-9.5,184.6
	c-30,46.2-68.3,81.6-123.1,96.4c-32.4,8.7-64.4,7-96.1-3.2l-2-0.7L729.5,761.7z M546,493.6c22.1,59.1,43.8,117.3,65.6,175.5
	c-3.1-0.2-6.1-1.3-8.7-3.1c-55.2-36.1-110.5-72.2-165.7-108.3c-7.6-5-15.1-12.9-23.2-13.8s-17.1,5.2-25.7,8.4
	c-10.2,3.8-20.4,7.7-30.9,11.7c36.8,98.6,73.2,196.2,109.7,293.8l62.6-23.4c-23.5-62.5-46.5-123.8-70-186.6c4,2.5,6.7,4,9.3,5.7
	c63.4,42,126.9,84,190.3,126c2.5,1.6,6.1,4,8.2,3.2c16.9-5.7,33.6-12.2,50.8-18.5c-37.1-98.3-73.8-195.8-110.7-293.8L546,493.6z
	 M89.8,663.9c0.7,2.4,1,3.9,1.5,5.3c19.7,52.8,39.5,105.6,59.2,158.5c7.1,19,16,37.1,28.5,53.2c24.1,31,55.3,47.5,95.1,45.2
	c39.1-2.3,73.9-16.1,103.5-41.7c21.5-18.7,32.8-42.8,34.6-71.3c1.5-23.7-2.7-46.6-10.8-68.7c-20.6-55.9-41.6-111.6-62.5-167.3
	c-0.8-1.7-1.6-3.4-2.6-5l-61.3,23c0.6,1.9,0.8,2.8,1.1,3.6c20.1,53.7,40.5,107.3,60,161.2c4.3,11.8,6.8,24.2,7.3,36.8
	c0.8,26.3-14.8,47.1-40.3,57.2c-25.4,10-51,5-69.1-13.5c-10.2-10.4-16.3-23.1-21.4-36.5c-13.4-35.7-26.8-71.4-40.1-107.1
	c-6.9-18.5-13.9-37-21-55.8L89.8,663.9z M970.4,567.3c0.4-20.4-3.9-41.6-11.8-62.1c-26.9-69.5-91.9-114.2-162.2-104.7
	c-54.5,7.3-95.8,34.8-118.6,85.8c-32,71.4-5.1,162.9,60.3,207.7c32.7,22.4,68.8,31.5,108,24.4C920.8,705,970.3,645,970.4,567.3z
	 M523.6,572.5c9.8-10.3,18.4-19.4,26.9-28.5c0.9-1,1.7-3,1.3-4.2c-4.9-13.7-10.1-27.3-15.8-42.5c-9,9.4-16.4,17.4-24.2,25.1
	c-4,3.9-4.2,7.9-2.3,12.8C514.1,547,518.4,558.7,523.6,572.5L523.6,572.5z M103.6,841.7c1.6-0.4,2.3-0.3,2.7-0.7
	c5.2-5.1,9.9-10.8,15.5-15.2c10.2-7.9,12.9-16.2,6.2-28.1c-4.7-8.5-7.3-18.2-11.1-28.3c-9.3,9.3-17.4,17.1-25.1,25.4
	c-1.8,1.9-3.2,6-2.5,8.3C93.7,816.2,98.8,829,103.6,841.7z M265,599.3c-9.2,9.2-17.7,17.6-25.9,26.3c-1.4,1.5-2.4,4.9-1.8,6.8
	c4.5,13.3,9.5,26.3,14.8,40.6c9.6-9.5,18.2-17.8,26.5-26.4c1.4-1.5,2.3-4.8,1.6-6.6C275.4,626.6,270.3,613.5,265,599.3z
	 M535.8,603.2c7.4-7.3,14.4-14.1,21.3-20.9c8.9-8.9,8.9-12.4,0.4-22.6c-0.6,0.2-1.4,0.2-1.7,0.6c-5.7,5.8-11.3,11.7-17,17.5
	C528.4,588.2,528.3,588.2,535.8,603.2L535.8,603.2z M146.1,844c-1.9-4.3-4-9.3-6.5-14.9c-7.6,7.6-14.3,14.2-21,20.9
	c-9.3,9.3-9.4,11.9-1.8,22.9L146.1,844z M286.7,659.6c-7.6,7.5-14.6,14.4-21.4,21.3c-8.9,8.9-8.9,11.6-0.2,22.4
	c0.6-0.2,1.1-0.6,1.6-0.9c5.8-5.8,11.6-11.6,17.4-17.4C294.5,674.4,294.5,674.4,286.7,659.6L286.7,659.6z"/>
<path class="st6" d="M730.6,757.5c1,2.9,2,5.9,3.1,8.9c-11.9,11.9-23.6,23.8-35.6,35.5c-2.5,2.3-5.5,4.1-8.8,5.2
	c-18.3,6.8-36.7,13.1-54.9,20.1c-5.4,2.1-9.1,1.5-13.8-1.7c-34-22.7-68.2-45.2-102.4-67.7c-0.7-0.3-1.4-0.5-2.1-0.8l0.4,2.4
	c8.5,23,16.8,46,25.5,68.8c2.3,6,1.5,9.6-3,14.8c-19.9,23.2-43.8,39.1-73.4,47.3c-13.9,3.8-27.1,10-41.5,15.5
	c-5.3-14.1-10.4-27.5-15.2-40c-18.2,18.4-36.3,37.3-55.1,55.5c-36.7,35.3-80.9,52.2-131.7,49.5c-38.5-2-68.5-21.4-90-52.6
	c-11.4-16.6-20.8-34.5-28.1-53.3c-22-56.3-42.6-113.2-63.7-169.9c-0.4-1.1-0.8-2.3-1.9-5.5C50.2,678,62.5,666.2,75,654.6
	c1.9-1.7,4-3,6.4-3.9c25.9-9.7,51.8-19.2,78.4-29c7.3,19.2,14.5,38.2,21.6,57.3c14.6,39.1,29.3,78.2,43.9,117.3
	c4.8,12.8,10.9,24.8,21.3,34.1c11.3,10.2,24.7,13.5,39.5,11.6c7.3-0.9,11.3-5.3,10.3-13.2c-1.2-10.2-2.9-20.7-6.4-30.3
	c-20.5-55.9-41.4-111.7-62.6-167.3c-2.6-6.9-1.2-10.7,3.5-16.3c20.2-24.3,45.6-38.9,75.6-48.4c35-11.1,69.1-24.8,103.5-37.7
	c5.4-2,9.1-1.4,13.9,1.7c32.1,21.2,64.3,42,98.2,64c-1.1-3.8-1.5-6.1-2.3-8.2c-7.2-19.5-14.3-39-21.9-58.4
	c-1.9-4.8-1.4-7.9,2.4-11.6c10.2-9.9,20-20.2,30.1-30.3c1.5-1.5,3.1-3.4,5-4.1c26.4-10,52.9-19.8,80.2-29.9l19.5,51
	c10.4-13.7,19.6-27.5,30.5-39.8c24.6-27.9,52.3-52.4,87.3-66.7c84-34.4,169.9,4.1,208.7,81.9c31.4,62.8,29.3,124.9-9.5,184.6
	c-30,46.2-68.3,81.6-123.1,96.4c-32.4,8.7-64.4,7-96.1-3.2l-2-0.7L730.6,757.5z M547.2,489.4c22.1,59.1,43.8,117.3,65.6,175.5
	c-3.1-0.2-6.1-1.3-8.7-3.1c-55.2-36.1-110.5-72.2-165.7-108.3c-7.6-5-15.1-12.9-23.2-13.8s-17.1,5.2-25.7,8.4
	c-10.2,3.8-20.4,7.7-30.9,11.7c36.8,98.6,73.2,196.2,109.7,293.8l62.6-23.4c-23.5-62.5-46.5-123.8-70-186.6c4,2.5,6.7,4,9.3,5.7
	c63.4,42,126.9,84,190.3,126c2.5,1.6,6.1,4,8.2,3.2c16.9-5.7,33.6-12.2,50.8-18.5c-37.1-98.3-73.8-195.8-110.7-293.8L547.2,489.4z
	 M90.9,659.7c0.7,2.4,1,3.9,1.5,5.3c19.7,52.8,39.5,105.6,59.2,158.5c7.1,19,16,37.1,28.5,53.2c24.1,31,55.3,47.5,95.1,45.2
	c39.1-2.3,73.9-16.1,103.5-41.7c21.5-18.7,32.8-42.8,34.6-71.3c1.5-23.7-2.7-46.6-10.8-68.7c-20.6-55.9-41.6-111.6-62.5-167.3
	c-0.8-1.7-1.6-3.4-2.6-5l-61.3,23c0.6,1.9,0.8,2.8,1.1,3.6c20.1,53.7,40.5,107.3,60,161.2c4.3,11.8,6.8,24.2,7.3,36.8
	c0.8,26.3-14.8,47.1-40.3,57.2c-25.4,10-51,5-69.1-13.5c-10.2-10.4-16.3-23.1-21.4-36.5c-13.4-35.7-26.8-71.4-40.1-107.1
	c-6.9-18.5-13.9-37-21-55.8L90.9,659.7z M971.5,563c0.4-20.4-3.9-41.6-11.8-62.1c-26.9-69.5-91.9-114.2-162.2-104.7
	c-54.5,7.3-95.8,34.8-118.6,85.8c-32,71.4-5.1,162.9,60.3,207.7c32.7,22.4,68.8,31.5,108,24.4C922,700.7,971.5,640.8,971.5,563z
	 M524.7,568.3c9.8-10.3,18.4-19.4,26.9-28.5c0.9-1,1.7-3,1.3-4.2c-4.9-13.7-10.1-27.3-15.8-42.5c-9,9.4-16.4,17.4-24.2,25.1
	c-4,3.9-4.2,7.9-2.3,12.8C515.2,542.7,519.6,554.5,524.7,568.3L524.7,568.3z M104.7,837.5c1.6-0.4,2.3-0.3,2.7-0.7
	c5.2-5.1,9.9-10.8,15.5-15.2c10.2-7.9,12.9-16.2,6.2-28.1c-4.7-8.5-7.3-18.2-11.1-28.3c-9.3,9.3-17.4,17.1-25.1,25.4
	c-1.8,1.9-3.2,6-2.5,8.3C94.9,812,99.9,824.8,104.7,837.5z M266.1,595.1c-9.2,9.2-17.7,17.6-25.9,26.3c-1.4,1.5-2.4,4.9-1.8,6.8
	c4.5,13.3,9.5,26.3,14.8,40.6c9.6-9.5,18.2-17.8,26.5-26.4c1.4-1.5,2.3-4.8,1.6-6.6C276.6,622.3,271.5,609.2,266.1,595.1z
	 M536.9,599c7.4-7.3,14.4-14.1,21.3-20.9c8.9-8.9,8.9-12.4,0.4-22.6c-0.6,0.2-1.4,0.2-1.7,0.6c-5.7,5.8-11.3,11.7-17,17.5
	C529.5,584,529.5,584,536.9,599L536.9,599z M147.2,839.7c-1.9-4.3-4-9.3-6.5-14.9c-7.6,7.6-14.3,14.2-21,20.9
	c-9.3,9.3-9.4,11.9-1.8,22.9L147.2,839.7z M287.8,655.3c-7.6,7.5-14.6,14.4-21.4,21.3c-8.9,8.9-8.9,11.6-0.2,22.4
	c0.6-0.2,1.1-0.6,1.6-0.9c5.8-5.8,11.6-11.6,17.4-17.4C295.6,670.2,295.6,670.2,287.8,655.3L287.8,655.3z"/>
<path class="st7" d="M547.2,489.4l61.6-23.2c36.9,98,73.7,195.5,110.7,293.8c-17.2,6.4-33.9,12.8-50.8,18.5
	c-2.1,0.7-5.8-1.6-8.2-3.2c-63.5-42-126.9-84-190.3-126c-2.6-1.7-5.3-3.3-9.3-5.7c23.6,62.8,46.6,124.1,70,186.6l-62.6,23.4
	c-36.5-97.7-72.9-195.2-109.7-293.8c10.4-3.9,20.6-7.9,30.9-11.7c8.6-3.2,17.5-9.3,25.7-8.4s15.6,8.8,23.2,13.8
	c55.2,36.1,110.5,72.2,165.7,108.3c2.6,1.8,5.5,2.9,8.7,3.1C591,606.7,569.2,548.5,547.2,489.4z M368.5,564.5l104.6,278.9l47.9-17.6
	l-74.5-199.2c3.3,0.3,6.4,1.5,9,3.4c28.7,19,57.4,38.1,86.1,57.1c39.5,26.2,79,52.4,118.5,78.5c3,2,7.3,4.6,10.1,3.7
	c12.8-3.9,25.3-8.9,38.7-13.9L604.3,476.1l-47.2,17.8L628,683.7l-1.7,1.4c-2.8-1.7-5.7-3.4-8.4-5.2c-23.3-15.2-46.6-30.3-69.9-45.5
	c-42.1-27.5-84.2-54.9-126.3-82.3c-3-1.9-7.3-4.4-10.1-3.5C397.4,553.2,383.4,558.9,368.5,564.5z"/>
<path class="st8" d="M90.9,659.7l61.8-23.1c7.1,18.8,14.1,37.3,21,55.8c13.4,35.7,26.7,71.4,40.1,107.1c5,13.4,11.2,26.1,21.4,36.5
	c18.1,18.5,43.7,23.5,69.1,13.5c25.6-10.1,41.2-30.9,40.3-57.2c-0.5-12.6-3-25-7.3-36.8c-19.5-53.9-39.9-107.5-60-161.2
	c-0.3-0.9-0.5-1.8-1.1-3.6l61.3-23c1,1.6,1.8,3.3,2.6,5c20.9,55.8,41.9,111.5,62.5,167.3c8.2,22.1,12.3,45,10.8,68.7
	c-1.8,28.5-13.1,52.6-34.6,71.3c-29.6,25.7-64.4,39.5-103.5,41.7c-39.8,2.3-71-14.2-95.1-45.2c-12.5-16.1-21.4-34.2-28.5-53.2
	c-19.8-52.8-39.6-105.6-59.2-158.5C92,663.6,91.6,662.1,90.9,659.7z M286.5,595c0.9,3.5,1.3,5.6,2.1,7.7c7.7,20.7,15.6,41.3,23.3,62
	c12.4,33.4,25.6,66.6,36.7,100.4c9.1,27.5,6,54.1-16.4,75.2c-21.1,19.8-46.1,27.2-74.3,18.6c-24.2-7.4-38.9-25.5-47.7-48.1
	c-14.5-37-28.1-74.4-42-111.6c-6.5-17.4-13.1-34.8-19.8-52.6l-47.4,17.7c1.3,4.2,2.2,7.2,3.3,10.1c16.5,44.7,33.1,89.4,49.5,134.1
	c7.2,19.6,14.9,38.9,26.8,56.3c23.8,34.8,55.9,53.3,98.9,49.5c34.9-3.1,66.4-15.4,93.1-38.4c22.2-19.1,33.4-43.7,33.6-73.4
	c0-20.9-3.7-41.6-11.1-61.1c-13-35.5-26.4-71-39.7-106.4c-7.1-18.8-14.2-37.7-21.6-57.4L286.5,595z"/>
<path class="st7" d="M971.5,563c-0.1,77.8-49.6,137.7-124.4,151.1c-39.2,7-75.3-2-108-24.4c-65.4-44.9-92.3-136.3-60.3-207.7
	c22.9-51,64.1-78.4,118.6-85.8c70.3-9.5,135.3,35.2,162.2,104.7C967.6,521.5,971.9,542.7,971.5,563z M963.9,563.3
	c0.5-22.2-4.7-44.5-13.7-66c-22.4-53.3-77.7-103.1-151.5-93.5c-55,7.2-96.3,35.5-115.7,88.4c-22.5,61.6-7.8,117.9,34.2,166.6
	c31.3,36.3,72.4,53,120.2,47.8C912.6,698.6,963.9,640,963.9,563.3L963.9,563.3z"/>
<path class="st9" d="M524.7,568.3c-5.2-13.8-9.5-25.5-14.1-37.2c-1.9-4.9-1.7-8.9,2.3-12.8c7.8-7.7,15.2-15.7,24.2-25.1
	c5.7,15.2,10.9,28.8,15.8,42.5c0.4,1.1-0.4,3.2-1.3,4.2C543.2,548.9,534.5,558,524.7,568.3z"/>
<path class="st9" d="M104.7,837.5c-4.8-12.7-9.9-25.5-14.2-38.5c-0.8-2.3,0.7-6.3,2.5-8.3c7.7-8.3,15.8-16.1,25.1-25.4
	c3.9,10.1,6.4,19.8,11.1,28.3c6.6,11.9,3.9,20.2-6.2,28.1c-5.7,4.4-10.4,10.1-15.5,15.2C107.1,837.2,106.3,837.1,104.7,837.5z"/>
<path class="st10" d="M266.1,595.1c5.3,14.1,10.5,27.3,15.1,40.6c0.6,1.8-0.2,5.1-1.6,6.6c-8.2,8.6-16.9,16.9-26.5,26.4
	c-5.2-14.2-10.2-27.3-14.8-40.6c-0.6-1.9,0.4-5.2,1.8-6.8C248.4,612.7,256.9,604.3,266.1,595.1z"/>
<path class="st11" d="M536.9,599c-7.4-15-7.4-15,2.9-25.5c5.7-5.8,11.3-11.7,17-17.5c0.4-0.4,1.2-0.4,1.7-0.6
	c8.5,10.3,8.5,13.7-0.4,22.6C551.3,584.9,544.3,591.7,536.9,599z"/>
<path class="st10" d="M147.2,839.7L118,868.6c-7.6-10.9-7.5-13.5,1.8-22.9c6.7-6.7,13.3-13.3,21-20.9
	C143.2,830.5,145.3,835.4,147.2,839.7z"/>
<path class="st9" d="M287.8,655.3c7.8,14.8,7.8,14.8-2.6,25.3c-5.8,5.8-11.6,11.6-17.4,17.4c-0.5,0.4-1,0.7-1.6,0.9
	c-8.7-10.8-8.7-13.5,0.2-22.4C273.3,669.7,280.2,662.9,287.8,655.3z"/>
<path class="st12" d="M368.5,564.5c14.8-5.6,28.8-11.3,43.1-15.9c2.7-0.9,7.1,1.6,10.1,3.5c42.2,27.3,84.3,54.8,126.3,82.3
	c23.3,15.2,46.6,30.4,69.9,45.5c2.8,1.8,5.6,3.5,8.4,5.2l1.7-1.4l-70.9-189.9l47.2-17.8L709,755.6c-13.4,4.9-25.9,10-38.7,13.9
	c-2.7,0.8-7.1-1.8-10.1-3.7c-39.6-26.1-79.1-52.2-118.5-78.5c-28.7-19-57.4-38.1-86.1-57.1c-2.7-1.9-5.8-3.1-9-3.4l74.5,199.2
	l-47.9,17.6L368.5,564.5z"/>
<path class="st12" d="M286.5,595l47.2-17.4c7.4,19.7,14.5,38.5,21.6,57.4c13.3,35.5,26.7,70.9,39.7,106.4
	c7.3,19.5,11.1,40.3,11.1,61.1c-0.2,29.7-11.3,54.2-33.6,73.4c-26.7,22.9-58.1,35.3-93.1,38.4c-43,3.8-75.1-14.7-98.9-49.5
	c-11.9-17.4-19.6-36.7-26.8-56.3c-16.4-44.7-33-89.4-49.5-134.1c-1.1-2.9-1.9-6-3.3-10.1l47.4-17.7c6.7,17.9,13.3,35.2,19.8,52.6
	c14,37.2,27.6,74.6,42,111.6c8.9,22.6,23.5,40.7,47.7,48.1c28.2,8.6,53.3,1.2,74.3-18.6c22.4-21,25.5-47.6,16.4-75.2
	c-11.1-33.8-24.3-67-36.7-100.4c-7.7-20.7-15.6-41.3-23.3-62C287.8,600.6,287.4,598.4,286.5,595z"/>
<path class="st12" d="M963.9,563.3c-0.1,76.7-51.4,135.3-126.5,143.4c-47.8,5.2-89-11.5-120.2-47.8c-42-48.7-56.7-105-34.2-166.6
	c19.3-53,60.7-81.2,115.7-88.4c73.8-9.7,129.2,40.2,151.5,93.5C959.2,518.8,964.5,541.1,963.9,563.3z M910.5,549.1
	c-0.8-18.7-12.7-49.8-38.6-74.6c-47.2-45.2-127.5-23-144.1,40.2c-10.7,40.6,1.2,76.7,27.2,108.5c16,19.7,37,31.5,62.7,32.8
	C860.8,658.2,911.9,627.7,910.5,549.1L910.5,549.1z"/>
<path class="st8" d="M910.5,549.1c1.5,78.7-49.7,109.1-92.8,106.9c-25.8-1.3-46.7-13.1-62.7-32.8c-25.9-31.8-37.8-67.9-27.2-108.5
	c16.6-63.2,96.9-85.4,144.1-40.2C897.8,499.3,909.7,530.4,910.5,549.1z M822.2,648.8c39.4,0.1,72.3-25.9,80.1-63.4
	c8.4-40.3-13-91.9-47.6-114.6c-46.3-30.5-112-2.4-120.8,52.1c-6.5,40.3,6.4,74.9,34.6,103.6C783,641.2,801.1,649,822.2,648.8
	L822.2,648.8z"/>
<path class="st13" d="M822.2,648.8c-21.1,0.2-39.2-7.6-53.7-22.3c-28.2-28.8-41.2-63.3-34.6-103.6c8.8-54.5,74.5-82.6,120.8-52.1
	c34.6,22.8,56,74.3,47.6,114.6C894.5,622.9,861.6,648.9,822.2,648.8z M816.1,637.2c27.2,0.2,39.4-11,38.7-32.9
	c-1-31.9-12.6-59.7-36.8-81.2c-13.9-12.4-30.7-17-49.2-15c-15.3,1.7-25,12.7-25.4,27.9c-0.8,26.1,7.1,49.6,22.4,70.5
	C779.4,625.1,797.4,636.8,816.1,637.2z M827.5,514.2l25.6,33.6c8.2-8.4,16.6-16.5,24.5-25.1c1.5-1.6,2.4-5.4,1.5-7.3
	c-5.3-11.9-12.8-22.2-23-29.8C846.3,495.4,836.8,504.8,827.5,514.2L827.5,514.2z M864.1,580.5c6.9-7.1,13.2-13.6,19.6-20
	c9.1-9.2,9.6-13.3,2.6-25c-7,6.8-13.6,14-21,20.3c-6,5.1-7.3,10.4-4,17.3C862.3,575,862.9,577.2,864.1,580.5L864.1,580.5z"/>
<path class="st10" d="M827.5,514.2c9.4-9.4,18.8-18.8,28.6-28.7c10.2,7.6,17.7,17.9,23,29.8c0.8,1.9-0.1,5.7-1.5,7.3
	c-7.9,8.6-16.2,16.7-24.5,25.1L827.5,514.2z"/>
<path class="st9" d="M864.1,580.5c-1.2-3.4-1.8-5.5-2.7-7.4c-3.4-6.9-2-12.2,4-17.3c7.4-6.3,14-13.5,21-20.3c7,11.6,6.5,15.8-2.6,25
	C877.3,566.9,871,573.5,864.1,580.5z"/>
</svg>
