<?xml version="1.0" encoding="utf-8"?>
<!-- Generator: Adobe Illustrator 25.0.0, SVG Export Plug-In . SVG Version: 6.00 Build 0)  -->
<svg version="1.1" id="Camada_1" xmlns="http://www.w3.org/2000/svg" xmlns:xlink="http://www.w3.org/1999/xlink" x="0px" y="0px"
	 viewBox="0 0 1021 1363" style="enable-background:new 0 0 1021 1363;" xml:space="preserve">
<style type="text/css">
	.st0{fill:#FFFFFF;}
	.st1{fill:#0000FF;}
	.st2{fill:#EFE750;}
	.st3{fill:#FF0000;}
	.st4{fill:#00FF00;}
</style>
<path class="st0" d="M206.5,0h608c114,0,206.5,92.5,206.5,206.5v950c0,114.1-92.5,206.5-206.5,206.5h-608
	C92.5,1363,0,1270.5,0,1156.5v-950C0,92.5,92.5,0,206.5,0z"/>
<path d="M251,95.5h519c89.4,0,162,72.5,162,161.9v0.1v847.9c0,89.4-72.5,162-161.9,162H770H251c-89.4,0-162-72.5-162-161.9v-0.1
	V257.5C89,168.1,161.5,95.5,251,95.5L251,95.5z"/>
<ellipse transform="matrix(0.4687 -0.8834 0.8834 0.4687 -323.0473 817.0815)" class="st0" cx="517.7" cy="677.1" rx="440.7" ry="350.8"/>
<path class="st1" d="M492.6,681.3H172C146.9,834,200.7,979,319.7,1042.2c18.4,9.7,37.8,17.3,58,22.4L492.6,681.3z"/>
<path class="st2" d="M614.5,282.8c-140.9-15.9-298.1,76.1-383.8,237.7c-22.3,41.8-38.5,86.5-48.3,132.8h321.1L614.5,282.8z"/>
<path class="st3" d="M520.9,681.3L404.4,1070c143.5,21.6,306.2-70.8,394-236.3c25.5-47.7,43-99.1,51.9-152.4H520.9z"/>
<path class="st4" d="M709.4,312c-22-11.7-45.6-20.2-70-25.2L529.6,653.3H860C877.5,507.9,823.3,372.5,709.4,312z"/>
<ellipse transform="matrix(0.4687 -0.8834 0.8834 0.4687 -564.5862 1296.941)" class="st0" cx="795.9" cy="1117.8" rx="74.1" ry="58.9"/>
<path class="st1" d="M791.5,1118.6h-53.9c-4.2,25.7,4.8,50,24.8,60.6c3.1,1.6,6.4,2.9,9.7,3.8L791.5,1118.6z"/>
<path class="st2" d="M811.9,1051.6c-23.7-2.7-50.1,12.8-64.5,39.9c-3.7,7-6.5,14.5-8.1,22.3h53.9L811.9,1051.6z"/>
<path class="st3" d="M796.2,1118.6l-19.6,65.3c24.1,3.6,51.5-11.9,66.2-39.7c4.3-8,7.2-16.7,8.7-25.6H796.2z"/>
<path class="st4" d="M827.9,1056.5c-3.7-2-7.7-3.4-11.8-4.2l-18.5,61.6h55.5C856.1,1089.4,847,1066.7,827.9,1056.5z"/>
<ellipse transform="matrix(0.4687 -0.8834 0.8834 0.4687 -106.7678 339.2111)" class="st0" cx="228.6" cy="258.4" rx="74.1" ry="58.9"/>
<path class="st1" d="M224.3,259.1h-53.9c-4.2,25.7,4.8,50,24.8,60.6c3.1,1.6,6.4,2.9,9.7,3.8L224.3,259.1z"/>
<path class="st2" d="M244.8,192.1c-23.7-2.7-50.1,12.8-64.5,39.9c-3.7,7-6.5,14.5-8.1,22.3h53.9L244.8,192.1z"/>
<path class="st3" d="M229.1,259.1l-19.6,65.3c24.1,3.6,51.5-11.9,66.2-39.7c4.3-8,7.2-16.7,8.7-25.6L229.1,259.1z"/>
<path class="st4" d="M260.7,197.1c-3.7-2-7.7-3.4-11.8-4.2l-18.5,61.6h55.5C289,230,279.9,207.2,260.7,197.1z"/>
</svg>
