<?xml version="1.0" encoding="utf-8"?>
<!-- Generator: Adobe Illustrator 25.0.0, SVG Export Plug-In . SVG Version: 6.00 Build 0)  -->
<svg version="1.1" id="Camada_1" xmlns="http://www.w3.org/2000/svg" xmlns:xlink="http://www.w3.org/1999/xlink" x="0px" y="0px"
	 viewBox="0 0 1021 1363" style="enable-background:new 0 0 1021 1363;" xml:space="preserve">
<style type="text/css">
	.st0{fill:#FFFFFF;}
	.st1{fill:#00FF00;stroke:#FFFFFF;stroke-width:11;stroke-miterlimit:10;}
	.st2{fill:#0000FF;stroke:#FFFFFF;stroke-width:11;stroke-miterlimit:10;}
	.st3{fill:#FF0000;stroke:#FFFFFF;stroke-width:11;stroke-miterlimit:10;}
	.st4{fill:#EFE750;stroke:#FFFFFF;stroke-width:11;stroke-miterlimit:10;}
	.st5{enable-background:new    ;}
</style>
<path class="st0" d="M206.5,0h608c114,0,206.5,92.5,206.5,206.5v950c0,114.1-92.5,206.5-206.5,206.5h-608
	C92.5,1363,0,1270.5,0,1156.5v-950C0,92.5,92.5,0,206.5,0z"/>
<path d="M251,95.5h519c89.5,0,162,72.5,162,162v847.9c0,89.5-72.5,162-162,162H251c-89.5,0-162-72.5-162-162V257.5
	C89,168,161.5,95.5,251,95.5z"/>
<ellipse transform="matrix(0.4687 -0.8834 0.8834 0.4687 -326.6514 819.0219)" class="st0" cx="517.5" cy="681.1" rx="440.7" ry="350.8"/>
<path class="st1" d="M309.3,635.2h89.6c26.1,0,47.3,21.2,47.3,47.3v139.9c0,26.1-21.2,47.3-47.3,47.3h-89.6
	c-26.1,0-47.3-21.2-47.3-47.3V682.6C262,656.4,283.2,635.2,309.3,635.2z"/>
<path class="st2" d="M401.3,493.2h89.6c26.1,0,47.3,21.2,47.3,47.3v139.9c0,26.1-21.2,47.3-47.3,47.3h-89.6
	c-26.1,0-47.3-21.2-47.3-47.3V540.6C354,514.4,375.2,493.2,401.3,493.2z"/>
<path class="st3" d="M539.3,635.2h89.6c26.1,0,47.3,21.2,47.3,47.3v139.9c0,26.1-21.2,47.3-47.3,47.3h-89.6
	c-26.1,0-47.3-21.2-47.3-47.3V682.6C492,656.4,513.2,635.2,539.3,635.2z"/>
<path class="st4" d="M631.3,493.2h89.6c26.1,0,47.3,21.2,47.3,47.3v139.9c0,26.1-21.2,47.3-47.3,47.3h-89.6
	c-26.1,0-47.3-21.2-47.3-47.3V540.6C584,514.4,605.2,493.2,631.3,493.2z"/>
<g class="st5">
	<path class="st0" d="M210.5,219.8h27.3l-3.6,20.4H207l-5.5,31.9h-21l5.5-31.9h-27.5l3.6-20.4h27.4l5.3-30.5h21L210.5,219.8z"/>
	<path class="st0" d="M312.1,240.6h12.5l-3.2,18.2h-12.5l-4.3,24.6h-22l4.3-24.6h-45.2l1.6-15.4l58-73.8h23L312.1,240.6z
		 M266.1,240.5l23.9,0.2l7.7-40.5l-2,2.8L266.1,240.5z"/>
</g>
<g class="st5">
	<path class="st0" d="M795.6,1155.6h-27.3l3.6-20.4h27.3l5.5-31.9h21l-5.5,31.9h27.5l-3.6,20.4h-27.4l-5.3,30.5h-21L795.6,1155.6z"
		/>
	<path class="st0" d="M694,1134.7h-12.5l3.2-18.2h12.5l4.3-24.6h22l-4.3,24.6h45.2l-1.6,15.4l-58,73.8h-23L694,1134.7z M740,1134.9
		l-23.9-0.2l-7.7,40.5l2-2.8L740,1134.9z"/>
</g>
</svg>
