<?xml version="1.0" encoding="utf-8"?>
<!-- Generator: Adobe Illustrator 25.0.0, SVG Export Plug-In . SVG Version: 6.00 Build 0)  -->
<svg version="1.1" id="Camada_1" xmlns="http://www.w3.org/2000/svg" xmlns:xlink="http://www.w3.org/1999/xlink" x="0px" y="0px"
	 viewBox="0 0 1021 1363" style="enable-background:new 0 0 1021 1363;" xml:space="preserve">
<style type="text/css">
	.st0{fill:#FFFFFF;}
	.st1{fill:#00FF00;}
	.st2{enable-background:new    ;}
</style>
<g>
	<path class="st0" d="M206.5,0h608C928.5,0,1021,92.5,1021,206.5v950c0,114.1-92.5,206.5-206.5,206.5h-608
		C92.5,1363,0,1270.5,0,1156.5v-950C0,92.5,92.5,0,206.5,0z"/>
</g>
<g>
	<path class="st1" d="M251,95.5H770c89.5,0,162,72.5,162,162v847.9c0,89.5-72.5,162-162,162H251c-89.5,0-162-72.5-162-162V257.5
		C89,168,161.5,95.5,251,95.5z"/>
</g>
<g>
	<path class="st0" d="M587.3,286.4c44.3,0,85.9,10.1,123.6,30.1c157.2,83.4,198.4,314.9,91.7,515.9c-39.2,74-94.3,136-159.3,179.5
		c-30,20.2-62.6,36.3-96.9,47.6c-33.1,10.8-66.4,16.3-98.8,16.3c-44.3,0-85.9-10.1-123.6-30.1c-157.2-83.4-198.4-314.9-91.7-515.9
		c39.2-74,94.3-136,159.3-179.5c30-20.2,62.6-36.3,96.9-47.6C521.7,291.9,554.9,286.4,587.3,286.4L587.3,286.4 M587.3,258.4
		c-142.6,0-294.2,97-379.8,258.3c-114.1,215-67.8,462.9,103.4,553.7c42.7,22.7,89.2,33.4,136.7,33.4c142.6,0,294.2-97,379.8-258.3
		c114.1-215,67.8-462.9-103.4-553.7C681.3,269.1,634.8,258.4,587.3,258.4L587.3,258.4z"/>
</g>
<g class="st2">
	<path class="st0" d="M281,348.4H167l3.9-24.7l60.7-57c12.5-11.7,20.7-21.1,24.8-28.4c4.1-7.3,5.6-14.4,4.6-21.4
		c-1.6-9.7-7.2-14.7-16.8-14.9c-7.5-0.2-13.8,2.5-18.9,7.9s-8.1,12.5-9.2,21.3l-33.1,0.1c0.6-10.6,3.8-20.3,9.5-29
		c5.7-8.7,13.3-15.4,22.8-20.3c9.5-4.8,19.8-7.2,30.8-7.1c15.9,0.3,28.3,4.8,37.1,13.4c8.8,8.6,12.8,20.1,11.7,34.4
		c-1.3,16.1-10.8,33-28.5,50.5l-16.9,16.1l-35,31.5l70.7,0.2L281,348.4z"/>
</g>
<g class="st2">
	<path d="M593.9,882.7H334.2l8.8-56.2l138.4-129.9c28.4-26.6,47.2-48.2,56.5-64.8c9.3-16.6,12.8-32.8,10.4-48.7
		c-3.7-22.1-16.5-33.5-38.3-34c-17.1-0.4-31.5,5.6-43,17.9s-18.5,28.5-21,48.5l-75.5,0.3c1.4-24.3,8.7-46.3,21.7-66.1
		c13-19.8,30.4-35.2,52.1-46.2c21.7-11,45.1-16.4,70.3-16.2c36.2,0.7,64.4,10.9,84.6,30.5c20.2,19.6,29.1,45.8,26.8,78.5
		c-2.9,36.8-24.5,75.1-65.1,115.1L522.4,748l-79.8,71.8l161.2,0.5L593.9,882.7z"/>
</g>
<g class="st2">
	<path class="st0" d="M627.9,860.7H368.2l8.8-56.2l138.4-129.9c28.4-26.6,47.2-48.2,56.5-64.8c9.3-16.6,12.8-32.8,10.4-48.7
		c-3.7-22.1-16.5-33.5-38.3-34c-17.1-0.4-31.5,5.6-43,17.9c-11.5,12.3-18.5,28.5-21,48.5l-75.5,0.3c1.4-24.3,8.7-46.3,21.7-66.1
		c13-19.8,30.4-35.2,52.1-46.2c21.7-11,45.1-16.4,70.3-16.2c36.2,0.7,64.4,10.9,84.6,30.5c20.2,19.6,29.1,45.8,26.8,78.5
		c-2.9,36.8-24.5,75.1-65.1,115.1L556.4,726l-79.8,71.8l161.2,0.5L627.9,860.7z"/>
</g>
<g class="st2">
	<path class="st0" d="M743.6,1054.5h96.5l-3.3,20.9l-51.4,48.3c-10.5,9.9-17.5,17.9-21,24.1s-4.7,12.2-3.9,18.1
		c1.4,8.2,6.1,12.4,14.2,12.6c6.4,0.1,11.7-2.1,16-6.7c4.3-4.6,6.9-10.6,7.8-18l28.1-0.1c-0.5,9-3.2,17.2-8.1,24.6
		c-4.8,7.4-11.3,13.1-19.4,17.2c-8.1,4.1-16.8,6.1-26.1,6c-13.5-0.3-23.9-4-31.4-11.3c-7.5-7.3-10.8-17-9.9-29.2
		c1.1-13.7,9.1-27.9,24.2-42.8l14.3-13.6l29.6-26.7l-59.9-0.2L743.6,1054.5z"/>
</g>
</svg>
