<?xml version="1.0" encoding="utf-8"?>
<!-- Generator: Adobe Illustrator 25.0.0, SVG Export Plug-In . SVG Version: 6.00 Build 0)  -->
<svg version="1.1" id="Camada_1" xmlns="http://www.w3.org/2000/svg" xmlns:xlink="http://www.w3.org/1999/xlink" x="0px" y="0px"
	 viewBox="0 0 1021 1363" style="enable-background:new 0 0 1021 1363;" xml:space="preserve">
<style type="text/css">
	.st0{fill:#FFFFFF;}
	.st1{fill:#00FF00;}
	.st2{enable-background:new    ;}
</style>
<g>
	<path class="st0" d="M206.5,0h608C928.5,0,1021,92.5,1021,206.5v950c0,114.1-92.5,206.5-206.5,206.5h-608
		C92.5,1363,0,1270.5,0,1156.5v-950C0,92.5,92.5,0,206.5,0z"/>
</g>
<g>
	<path class="st1" d="M251,95.5H770c89.5,0,162,72.5,162,162v847.9c0,89.5-72.5,162-162,162H251c-89.5,0-162-72.5-162-162V257.5
		C89,168,161.5,95.5,251,95.5z"/>
</g>
<g>
	<path class="st0" d="M587.3,286.4c44.3,0,85.9,10.1,123.6,30.1c157.2,83.4,198.4,314.9,91.7,515.9c-39.2,74-94.3,136-159.3,179.5
		c-30,20.2-62.6,36.3-96.9,47.6c-33.1,10.8-66.4,16.3-98.8,16.3c-44.3,0-85.9-10.1-123.6-30.1c-157.2-83.4-198.4-314.9-91.7-515.9
		c39.2-74,94.3-136,159.3-179.5c30-20.2,62.6-36.3,96.9-47.6C521.7,291.9,554.9,286.4,587.3,286.4L587.3,286.4 M587.3,258.4
		c-142.6,0-294.2,97-379.8,258.3c-114.1,215-67.8,462.9,103.4,553.7c42.7,22.7,89.2,33.4,136.7,33.4c142.6,0,294.2-97,379.8-258.3
		c114.1-215,67.8-462.9-103.4-553.7C681.3,269.1,634.8,258.4,587.3,258.4L587.3,258.4z"/>
</g>
<g class="st2">
	<path class="st0" d="M223.9,350.7c-14.8-0.3-26.2-5.3-34.3-15c-8.1-9.7-12.2-23.3-12.5-40.6c-0.1-5.8,0.2-11.6,0.9-17.4l4.8-32.1
		c3.8-23.3,11.4-41,22.7-53.1c11.3-12.1,25.7-17.9,43.4-17.5c14.8,0.3,26.3,5.3,34.4,15c8.1,9.7,12.3,23.2,12.5,40.5
		c0.1,5.9-0.2,11.7-0.9,17.5l-4.9,31.8c-3.9,23.5-11.5,41.3-22.6,53.4C256.1,345.3,241.7,351.1,223.9,350.7z M263.7,226.5
		c0-15.6-5.5-23.6-16.4-24.2c-15.8-0.7-25.9,11.3-30.2,36.1l-5.9,39.6c-1.3,8.3-1.9,15.2-1.9,20.6c-0.4,15.9,5.1,24.1,16.3,24.6
		c15.9,1,26-11.4,30.3-37.2l6.2-41.7C263.2,237.6,263.7,231.7,263.7,226.5z"/>
</g>
<g class="st2">
	<path d="M463.8,888c-33.7-0.7-59.8-12.1-78.2-34.3c-18.4-22.1-27.8-53-28.4-92.6c-0.2-13.2,0.5-26.4,2.1-39.6l11-73.1
		c8.7-53.2,26-93.5,51.7-121c25.7-27.5,58.6-40.8,98.8-39.9c33.7,0.7,59.8,12.1,78.3,34.1c18.5,22,28,52.8,28.5,92.2
		c0.2,13.4-0.5,26.7-2.1,39.9l-11.2,72.6c-8.9,53.5-26.1,94.1-51.5,121.7C537.3,875.6,504.3,888.9,463.8,888z M554.5,604.9
		c0-35.5-12.5-53.8-37.5-55c-36.1-1.6-59,25.8-68.8,82.3l-13.4,90.3c-2.9,18.9-4.3,34.6-4.3,47c-0.9,36.2,11.5,54.9,37.2,56.1
		c36.2,2.3,59.3-25.9,69.1-84.7l14.2-95.1C553.4,630.3,554.5,616.6,554.5,604.9z"/>
</g>
<g class="st2">
	<path class="st0" d="M497.8,866c-33.7-0.7-59.8-12.1-78.2-34.3c-18.4-22.1-27.8-53-28.4-92.6c-0.2-13.2,0.5-26.4,2.1-39.6l11-73.1
		c8.7-53.2,26-93.5,51.7-121c25.7-27.5,58.6-40.8,98.8-39.9c33.7,0.7,59.8,12.1,78.3,34.1c18.5,22,28,52.8,28.5,92.2
		c0.2,13.4-0.5,26.7-2.1,39.9l-11.2,72.6c-8.9,53.5-26.1,94.1-51.5,121.7C571.3,853.6,538.3,866.9,497.8,866z M588.5,582.9
		c0-35.5-12.5-53.8-37.5-55c-36.1-1.6-59,25.8-68.8,82.3l-13.4,90.3c-2.9,18.9-4.3,34.6-4.3,47c-0.9,36.2,11.5,54.9,37.2,56.1
		c36.2,2.3,59.3-25.9,69.1-84.7l14.2-95.1C587.4,608.3,588.5,594.6,588.5,582.9z"/>
</g>
<g class="st2">
	<path class="st0" d="M792,1052.5c12.5,0.3,22.2,4.5,29.1,12.7c6.8,8.2,10.3,19.7,10.5,34.4c0.1,4.9-0.2,9.8-0.8,14.7l-4.1,27.2
		c-3.2,19.8-9.7,34.8-19.2,45s-21.8,15.2-36.7,14.8c-12.5-0.3-22.2-4.5-29.1-12.7c-6.9-8.2-10.4-19.6-10.6-34.3
		c-0.1-5,0.2-9.9,0.8-14.8l4.2-27c3.3-19.9,9.7-35,19.2-45.2C764.6,1057.1,776.9,1052.1,792,1052.5z M758.2,1157.7
		c0,13.2,4.6,20,13.9,20.5c13.4,0.6,21.9-9.6,25.6-30.6l5-33.6c1.1-7,1.6-12.8,1.6-17.5c0.3-13.4-4.3-20.4-13.8-20.9
		c-13.5-0.9-22,9.6-25.7,31.5l-5.3,35.4C758.7,1148.3,758.2,1153.3,758.2,1157.7z"/>
</g>
</svg>
