<?xml version="1.0" encoding="utf-8"?>
<!-- Generator: Adobe Illustrator 25.0.0, SVG Export Plug-In . SVG Version: 6.00 Build 0)  -->
<svg version="1.1" id="Camada_1" xmlns="http://www.w3.org/2000/svg" xmlns:xlink="http://www.w3.org/1999/xlink" x="0px" y="0px"
	 viewBox="0 0 1021 1363" style="enable-background:new 0 0 1021 1363;" xml:space="preserve">
<style type="text/css">
	.st0{fill:#FFFFFF;}
	.st1{fill:#FF0000;}
	.st2{enable-background:new    ;}
</style>
<g>
	<path class="st0" d="M206.5,0h608C928.5,0,1021,92.5,1021,206.5v950c0,114.1-92.5,206.5-206.5,206.5h-608
		C92.5,1363,0,1270.5,0,1156.5v-950C0,92.5,92.5,0,206.5,0z"/>
</g>
<g>
	<path class="st1" d="M251,95.5H770c89.5,0,162,72.5,162,162v847.9c0,89.5-72.5,162-162,162H251c-89.5,0-162-72.5-162-162V257.5
		C89,168,161.5,95.5,251,95.5z"/>
</g>
<g>
	<path class="st0" d="M587.3,286.4c44.3,0,85.9,10.1,123.6,30.1c157.2,83.4,198.4,314.9,91.7,515.9c-39.2,74-94.3,136-159.3,179.5
		c-30,20.2-62.6,36.3-96.9,47.6c-33.1,10.8-66.4,16.3-98.8,16.3c-44.3,0-85.9-10.1-123.6-30.1c-157.2-83.4-198.4-314.9-91.7-515.9
		c39.2-74,94.3-136,159.3-179.5c30-20.2,62.6-36.3,96.9-47.6C521.7,291.9,554.9,286.4,587.3,286.4L587.3,286.4 M587.3,258.4
		c-142.6,0-294.2,97-379.8,258.3c-114.1,215-67.8,462.9,103.4,553.7c42.7,22.7,89.2,33.4,136.7,33.4c142.6,0,294.2-97,379.8-258.3
		c114.1-215,67.8-462.9-103.4-553.7C681.3,269.1,634.8,258.4,587.3,258.4L587.3,258.4z"/>
</g>
<g class="st2">
	<path class="st0" d="M274.7,284h18.8l-4.8,27.4h-18.8l-6.5,37h-33.1l6.5-37h-67.9l2.3-23.1l87.3-110.9h34.7L274.7,284z
		 M205.7,283.8l35.9,0.2l11.6-60.9l-3.1,4.2L205.7,283.8z"/>
</g>
<g class="st2">
	<path d="M579.7,735.9h42.8l-11,62.4h-42.8L554,882.7h-75.5l14.7-84.3H338.5l5.4-52.7l198.9-252.8h79L579.7,735.9z M422.3,735.4
		l81.9,0.5l26.5-138.7l-7,9.6L422.3,735.4z"/>
</g>
<g class="st2">
	<path class="st0" d="M613.7,713.9h42.8l-11,62.4h-42.8L588,860.7h-75.5l14.7-84.3H372.5l5.4-52.7l198.9-252.8h79L613.7,713.9z
		 M456.3,713.4l81.9,0.5l26.5-138.7l-7,9.6L456.3,713.4z"/>
</g>
<g class="st2">
	<path class="st0" d="M748.9,1109H733l4.1-23.2H753l5.5-31.3h28.1l-5.5,31.3h57.5l-2,19.6l-73.9,93.9h-29.4L748.9,1109z
		 M807.4,1109.2l-30.4-0.2l-9.9,51.5l2.6-3.6L807.4,1109.2z"/>
</g>
</svg>
