<?xml version="1.0" encoding="utf-8"?>
<!-- Generator: Adobe Illustrator 25.0.0, SVG Export Plug-In . SVG Version: 6.00 Build 0)  -->
<svg version="1.1" id="Camada_1" xmlns="http://www.w3.org/2000/svg" xmlns:xlink="http://www.w3.org/1999/xlink" x="0px" y="0px"
	 viewBox="0 0 1021 1363" style="enable-background:new 0 0 1021 1363;" xml:space="preserve">
<style type="text/css">
	.st0{fill:#FFFFFF;}
	.st1{fill:#FF0000;}
	.st2{enable-background:new    ;}
</style>
<g>
	<path class="st0" d="M206.5,0h608C928.5,0,1021,92.5,1021,206.5v950c0,114.1-92.5,206.5-206.5,206.5h-608
		C92.5,1363,0,1270.5,0,1156.5v-950C0,92.5,92.5,0,206.5,0z"/>
</g>
<g>
	<path class="st1" d="M251,95.5H770c89.5,0,162,72.5,162,162v847.9c0,89.5-72.5,162-162,162H251c-89.5,0-162-72.5-162-162V257.5
		C89,168,161.5,95.5,251,95.5z"/>
</g>
<g>
	<path class="st0" d="M587.3,286.4c44.3,0,85.9,10.1,123.6,30.1c157.2,83.4,198.4,314.9,91.7,515.9c-39.2,74-94.3,136-159.3,179.5
		c-30,20.2-62.6,36.3-96.9,47.6c-33.1,10.8-66.4,16.3-98.8,16.3c-44.3,0-85.9-10.1-123.6-30.1c-157.2-83.4-198.4-314.9-91.7-515.9
		c39.2-74,94.3-136,159.3-179.5c30-20.2,62.6-36.3,96.9-47.6C521.7,291.9,554.9,286.4,587.3,286.4L587.3,286.4 M587.3,258.4
		c-142.6,0-294.2,97-379.8,258.3c-114.1,215-67.8,462.9,103.4,553.7c42.7,22.7,89.2,33.4,136.7,33.4c142.6,0,294.2-97,379.8-258.3
		c114.1-215,67.8-462.9-103.4-553.7C681.3,269.1,634.8,258.4,587.3,258.4L587.3,258.4z"/>
</g>
<g class="st2">
	<path class="st0" d="M283.3,175.5l-2.6,28.1l-6.5,0.1c-26.9,1.4-46.2,16.2-58.2,44.4c9.8-9.6,21.3-14.3,34.4-14
		c9.2,0.2,17.1,2.7,23.4,7.8c6.4,5,11.1,11.9,14,20.6c3,8.7,4,18.3,3.2,28.8c-0.9,11.2-4.3,21.4-10,30.7
		c-5.8,9.3-13.3,16.5-22.6,21.6c-9.3,5.1-19.4,7.6-30.2,7.3c-11.2-0.3-20.8-3.5-28.8-9.5c-8-6-13.9-14.2-17.6-24.6
		c-3.7-10.4-4.9-21.8-3.6-34.1l1.3-10.6c3.7-29.4,14.5-52.9,32.4-70.4c17.9-17.5,40.2-26.3,66.9-26.3H283.3z M239.3,261.1
		c-5.7-0.2-10.8,1.3-15.4,4.2c-4.5,3-8.3,6.8-11.3,11.4l-1.5,10.6c-0.4,3.5-0.5,7.4-0.5,11.5c0.2,7.4,1.8,13.3,5.1,17.8
		c3.2,4.5,7.8,6.8,13.6,6.8c5.8,0.2,11.1-1.6,15.9-5.7c4.8-4,8.3-9.4,10.6-16.1c2.3-6.7,3-13.6,2.2-20.6c-0.7-6.1-2.7-11-5.9-14.5
		C248.8,263,244.5,261.2,239.3,261.1z"/>
</g>
<g class="st2">
	<path d="M599.2,488.5l-5.9,64l-14.7,0.3C517.4,556,473.2,589.7,446.1,654c22.3-22,48.5-32.6,78.5-31.9c21.1,0.4,38.9,6.2,53.4,17.7
		c14.5,11.4,25.2,27,32,46.9c6.8,19.8,9.2,41.7,7.2,65.6c-2.1,25.5-9.8,48.9-22.9,70s-30.3,37.6-51.5,49.3
		c-21.2,11.7-44.2,17.3-68.8,16.7c-25.5-0.7-47.4-7.9-65.7-21.6c-18.3-13.7-31.6-32.4-40-56.1c-8.4-23.7-11.2-49.6-8.3-77.6
		l2.9-24.1c8.4-67.1,33-120.6,73.8-160.5c40.8-39.9,91.6-59.8,152.5-59.8H599.2z M498.8,683.7c-13-0.4-24.7,2.9-35.1,9.7
		c-10.4,6.8-18.9,15.5-25.7,26l-3.5,24.1c-0.9,8-1.3,16.8-1.1,26.3c0.4,16.8,4.2,30.3,11.5,40.5c7.3,10.2,17.7,15.4,31.1,15.6
		c13.2,0.5,25.3-3.8,36.1-12.9c10.9-9.1,18.9-21.4,24.1-36.7c5.2-15.4,6.9-31,5.1-46.9c-1.6-13.9-6.1-25-13.5-33.1
		C520.5,688.1,510.8,683.9,498.8,683.7z"/>
</g>
<g class="st2">
	<path class="st0" d="M633.2,466.5l-5.9,64l-14.7,0.3C551.4,534,507.2,567.7,480.1,632c22.3-22,48.5-32.6,78.5-31.9
		c21.1,0.4,38.9,6.2,53.4,17.7c14.5,11.4,25.2,27,32,46.9c6.8,19.8,9.2,41.7,7.2,65.6c-2.1,25.5-9.8,48.9-22.9,70
		s-30.3,37.6-51.5,49.3c-21.2,11.7-44.2,17.3-68.8,16.7c-25.5-0.7-47.4-7.9-65.7-21.6c-18.3-13.7-31.6-32.4-40-56.1
		c-8.4-23.7-11.2-49.6-8.3-77.6l2.9-24.1c8.4-67.1,33-120.6,73.8-160.5c40.8-39.9,91.6-59.8,152.5-59.8H633.2z M532.8,661.7
		c-13-0.4-24.7,2.9-35.1,9.7c-10.4,6.8-18.9,15.5-25.7,26l-3.5,24.1c-0.9,8-1.3,16.8-1.1,26.3c0.4,16.8,4.2,30.3,11.5,40.5
		c7.3,10.2,17.7,15.4,31.1,15.6c13.2,0.5,25.3-3.8,36.1-12.9c10.9-9.1,18.9-21.4,24.1-36.7c5.2-15.4,6.9-31,5.1-46.9
		c-1.6-13.9-6.1-25-13.5-33.1C554.5,666.1,544.8,661.9,532.8,661.7z"/>
</g>
<g class="st2">
	<path class="st0" d="M741.6,1200.9l2.2-23.8l5.5-0.1c22.8-1.2,39.2-13.7,49.3-37.6c-8.3,8.2-18,12.1-29.2,11.8
		c-7.8-0.1-14.4-2.3-19.8-6.6c-5.4-4.2-9.4-10-11.9-17.4c-2.5-7.4-3.4-15.5-2.7-24.4c0.8-9.5,3.6-18.2,8.5-26
		c4.9-7.9,11.3-14,19.2-18.3c7.9-4.3,16.4-6.4,25.6-6.2c9.5,0.3,17.6,2.9,24.4,8c6.8,5.1,11.8,12,14.9,20.8
		c3.1,8.8,4.1,18.4,3.1,28.9l-1.1,9c-3.1,24.9-12.3,44.8-27.4,59.6c-15.2,14.8-34,22.2-56.7,22.2H741.6z M778.9,1128.4
		c4.8,0.1,9.2-1.1,13-3.6c3.8-2.5,7-5.7,9.6-9.7l1.3-9c0.3-3,0.5-6.2,0.4-9.8c-0.1-6.2-1.6-11.3-4.3-15.1c-2.7-3.8-6.6-5.7-11.5-5.8
		c-4.9-0.2-9.4,1.4-13.4,4.8c-4,3.4-7,7.9-9,13.7c-1.9,5.7-2.6,11.5-1.9,17.4c0.6,5.2,2.3,9.3,5,12.3
		C770.9,1126.8,774.5,1128.3,778.9,1128.4z"/>
</g>
</svg>
