<?xml version="1.0" encoding="utf-8"?>
<!-- Generator: Adobe Illustrator 25.0.0, SVG Export Plug-In . SVG Version: 6.00 Build 0)  -->
<svg version="1.1" id="Camada_1" xmlns="http://www.w3.org/2000/svg" xmlns:xlink="http://www.w3.org/1999/xlink" x="0px" y="0px"
	 viewBox="0 0 1021 1363" style="enable-background:new 0 0 1021 1363;" xml:space="preserve">
<style type="text/css">
	.st0{fill:#FFFFFF;}
	.st1{fill:#FF0000;}
	.st2{enable-background:new    ;}
</style>
<path class="st0" d="M206.5,0h608C928.5,0,1021,92.5,1021,206.5v950c0,114.1-92.5,206.5-206.5,206.5h-608
	C92.5,1363,0,1270.5,0,1156.5v-950C0,92.5,92.5,0,206.5,0z"/>
<path class="st1" d="M251,95.5H770c89.5,0,162,72.5,162,162v847.9c0,89.5-72.5,162-162,162H251c-89.5,0-162-72.5-162-162V257.5
	C89,168,161.5,95.5,251,95.5z"/>
<path class="st0" d="M587.3,286.4c44.3,0,85.9,10.1,123.6,30.1c157.2,83.4,198.4,314.9,91.7,515.9c-39.2,74-94.3,136-159.3,179.5
	c-30,20.2-62.6,36.3-96.9,47.6c-33.1,10.8-66.4,16.3-98.8,16.3c-44.3,0-85.9-10.1-123.6-30.1c-157.2-83.4-198.4-314.9-91.7-515.9
	c39.2-74,94.3-136,159.3-179.5c30-20.2,62.6-36.3,96.9-47.6C521.7,291.9,554.9,286.4,587.3,286.4L587.3,286.4 M587.3,258.4
	c-142.6,0-294.2,97-379.8,258.3c-114.1,215-67.8,462.9,103.4,553.7c42.7,22.7,89.2,33.4,136.7,33.4c142.6,0,294.2-97,379.8-258.3
	c114.1-215,67.8-462.9-103.4-553.7C681.3,269.1,634.8,258.4,587.3,258.4L587.3,258.4z"/>
<g class="st2">
	<path class="st0" d="M246.1,348.4H213l22.6-130.2l-41.6,12.6l5.2-29l71.4-24.7l4.3-0.1L246.1,348.4z"/>
</g>
<g class="st2">
	<path d="M514.4,882.7h-75.5L490.3,586l-94.8,28.6l11.8-66.1l162.8-56.2l9.9-0.3L514.4,882.7z"/>
</g>
<g class="st2">
	<path class="st0" d="M548.4,860.7h-75.5L524.3,564l-94.8,28.6l11.8-66.1l162.8-56.2l9.9-0.3L548.4,860.7z"/>
</g>
<g class="st2">
	<path class="st0" d="M773.2,1054.5h28.1l-19.1,110.2l35.2-10.6l-4.4,24.6l-60.5,20.9l-3.7,0.1L773.2,1054.5z"/>
</g>
</svg>
