<svg id="Camada_1" data-name="Camada 1" xmlns="http://www.w3.org/2000/svg" viewBox="0 0 1021 1363"><defs><style>.cls-1,.cls-3,.cls-4{fill:#fff;}.cls-2{fill:red;}.cls-3,.cls-4{stroke:#000;stroke-miterlimit:10;}.cls-3{stroke-width:20px;}.cls-4{stroke-width:7px;}</style></defs><rect class="cls-1" width="1021" height="1363" rx="206.514"/><rect class="cls-2" x="89" y="95.5" width="843" height="1172" rx="162.039"/><path class="cls-1" d="M587.345,286.38c44.283,0,85.852,10.142,123.553,30.145C868.145,399.957,909.3,631.377,802.645,832.4c-39.246,73.968-94.34,136.032-159.327,179.481a395.519,395.519,0,0,1-96.922,47.631c-33.148,10.81-66.389,16.291-98.8,16.291-44.288,0-85.859-10.142-123.559-30.145-157.246-83.432-198.4-314.852-91.747-515.874,39.246-73.969,94.34-136.032,159.327-179.48a395.558,395.558,0,0,1,96.922-47.632c33.149-10.81,66.39-16.291,98.8-16.292h0m-.006-28c-142.639,0-294.191,96.961-379.783,258.28-114.076,215.005-67.8,462.919,103.359,553.732,42.737,22.676,89.213,33.411,136.682,33.411,142.639,0,294.19-96.961,379.782-258.28,114.077-215,67.8-462.919-103.358-553.732-42.738-22.675-89.213-33.412-136.682-33.411Z"/><path d="M652.608,542.851c-82.865-82.865-217.216-82.865-300.081,0s-82.865,217.215,0,300.08,217.216,82.865,300.081,0S735.473,625.716,652.608,542.851Zm-251.99,48.09a144.238,144.238,0,0,1,175.509-22.09l-197.6,197.6A144.236,144.236,0,0,1,400.618,590.941Zm28.39,225.99,197.6-197.6a144.222,144.222,0,0,1-197.6,197.6Z"/><path class="cls-3" d="M668.473,532.921c-82.865-82.865-217.216-82.865-300.081,0s-82.865,217.216,0,300.081,217.216,82.865,300.081,0S751.338,615.786,668.473,532.921Zm-251.99,48.091a144.236,144.236,0,0,1,175.509-22.09l-197.6,197.6A144.237,144.237,0,0,1,416.483,581.012ZM444.873,807l197.6-197.6A144.223,144.223,0,0,1,444.873,807Z"/><path class="cls-4" d="M834.557,1065.9a64.487,64.487,0,1,0,0,91.2A64.488,64.488,0,0,0,834.557,1065.9Zm-76.583,14.616a43.837,43.837,0,0,1,53.34-6.714l-60.053,60.053A43.835,43.835,0,0,1,757.974,1080.513Zm8.629,68.681,60.052-60.053a43.831,43.831,0,0,1-60.052,60.053Z"/><path class="cls-4" d="M286.833,191.636a64.487,64.487,0,1,0,0,91.2A64.487,64.487,0,0,0,286.833,191.636ZM210.25,206.251a43.834,43.834,0,0,1,53.339-6.713L203.536,259.59A43.836,43.836,0,0,1,210.25,206.251Zm8.628,68.681,60.053-60.053a43.831,43.831,0,0,1-60.053,60.053Z"/></svg>