<?xml version="1.0" encoding="utf-8"?>
<!-- Generator: Adobe Illustrator 25.0.0, SVG Export Plug-In . SVG Version: 6.00 Build 0)  -->
<svg version="1.1" id="Camada_1" xmlns="http://www.w3.org/2000/svg" xmlns:xlink="http://www.w3.org/1999/xlink" x="0px" y="0px"
	 viewBox="0 0 1021 1363" style="enable-background:new 0 0 1021 1363;" xml:space="preserve">
<style type="text/css">
	.st0{fill:#FFFFFF;}
	.st1{fill:#FF0000;}
	.st2{enable-background:new    ;}
</style>
<g>
	<path class="st0" d="M206.5,0h608C928.5,0,1021,92.5,1021,206.5v950c0,114.1-92.5,206.5-206.5,206.5h-608
		C92.5,1363,0,1270.5,0,1156.5v-950C0,92.5,92.5,0,206.5,0z"/>
</g>
<g>
	<path class="st1" d="M251,95.5H770c89.5,0,162,72.5,162,162v847.9c0,89.5-72.5,162-162,162H251c-89.5,0-162-72.5-162-162V257.5
		C89,168,161.5,95.5,251,95.5z"/>
</g>
<g>
	<path class="st0" d="M587.3,286.4c44.3,0,85.9,10.1,123.6,30.1c157.2,83.4,198.4,314.9,91.7,515.9c-39.2,74-94.3,136-159.3,179.5
		c-30,20.2-62.6,36.3-96.9,47.6c-33.1,10.8-66.4,16.3-98.8,16.3c-44.3,0-85.9-10.1-123.6-30.1c-157.2-83.4-198.4-314.9-91.7-515.9
		c39.2-74,94.3-136,159.3-179.5c30-20.2,62.6-36.3,96.9-47.6C521.7,291.9,554.9,286.4,587.3,286.4L587.3,286.4 M587.3,258.4
		c-142.6,0-294.2,97-379.8,258.3c-114.1,215-67.8,462.9,103.4,553.7c42.7,22.7,89.2,33.4,136.7,33.4c142.6,0,294.2-97,379.8-258.3
		c114.1-215,67.8-462.9-103.4-553.7C681.3,269.1,634.8,258.4,587.3,258.4L587.3,258.4z"/>
</g>
<g class="st2">
	<path class="st0" d="M256.5,279.9c-9.6,8.9-19.9,13.3-30.9,13.2c-9.4-0.1-17.4-2.6-24-7.5c-6.6-4.9-11.5-11.8-14.6-20.6
		c-3.2-8.8-4.3-18.3-3.3-28.6c1.1-12.6,5.1-24,12-34.2c6.9-10.2,15.9-17.7,26.9-22.6c7.3-3.2,15.3-4.7,24-4.6
		c14.1,0.3,25.3,5.2,33.7,14.8c8.4,9.6,13.1,22.4,14.2,38.4c0.3,5.6,0.2,11.1-0.4,16.6l-1.3,10.1c-3.8,29.8-14.5,53.2-31.9,70
		c-17.4,16.8-39.8,25.3-67,25.3h-2.5l2.6-28.4h1.8c15.4,0.2,28.1-3.1,38.1-10C243.8,304.7,251.4,294.1,256.5,279.9z M234.8,267.2
		c9.4,0.3,17.7-4.5,24.9-14.4l2-14.2c0.4-3.3,0.6-7,0.6-11.1c-0.2-7.5-1.7-13.5-4.7-18.1c-3-4.5-7.3-6.9-12.9-7
		c-5.6-0.1-10.7,1.9-15.2,6c-4.5,4.1-7.9,9.7-10.2,16.8c-2.3,7.1-3.2,14.2-2.5,21.2c0.5,6.3,2.4,11.3,5.6,15
		C225.5,265.2,229.6,267.1,234.8,267.2z"/>
</g>
<g class="st2">
	<path d="M538.2,726.6c-22,20.3-45.4,30.3-70.4,30c-21.4-0.2-39.6-5.9-54.6-17.1s-26.1-26.9-33.3-47c-7.2-20.1-9.8-41.8-7.6-65.2
		c2.5-28.7,11.6-54.7,27.3-77.9c15.7-23.2,36.1-40.3,61.3-51.4c16.6-7.3,34.8-10.8,54.6-10.4c32.1,0.7,57.7,12,76.8,33.7
		c19.1,21.8,29.9,51,32.4,87.6c0.7,12.7,0.4,25.3-0.8,37.8l-2.9,23c-8.7,68-33,121.2-72.7,159.6c-39.7,38.4-90.6,57.6-152.8,57.6
		h-5.6l5.9-64.8h4c35.2,0.5,64.1-7.1,86.8-22.9C509.2,783.2,526.4,759,538.2,726.6z M488.7,697.6c21.4,0.7,40.3-10.2,56.8-32.9
		l4.6-32.3c0.9-7.5,1.3-15.9,1.3-25.4c-0.4-17.1-3.9-30.8-10.7-41.2c-6.8-10.3-16.6-15.7-29.5-16c-12.9-0.2-24.4,4.4-34.7,13.8
		c-10.3,9.4-18,22.1-23.3,38.4c-5.3,16.2-7.2,32.3-5.8,48.4c1.2,14.3,5.5,25.7,12.7,34.2C467.4,693.1,476.9,697.5,488.7,697.6z"/>
</g>
<g class="st2">
	<path class="st0" d="M572.2,704.6c-22,20.3-45.4,30.3-70.4,30c-21.4-0.2-39.6-5.9-54.6-17.1s-26.1-26.9-33.3-47
		c-7.2-20.1-9.8-41.8-7.6-65.2c2.5-28.7,11.6-54.7,27.3-77.9c15.7-23.2,36.1-40.3,61.3-51.4c16.6-7.3,34.8-10.8,54.6-10.4
		c32.1,0.7,57.7,12,76.8,33.7c19.1,21.8,29.9,51,32.4,87.6c0.7,12.7,0.4,25.3-0.8,37.8l-2.9,23c-8.7,68-33,121.2-72.7,159.6
		c-39.7,38.4-90.6,57.6-152.8,57.6h-5.6l5.9-64.8h4c35.2,0.5,64.1-7.1,86.8-22.9C543.2,761.2,560.4,737,572.2,704.6z M522.7,675.6
		c21.4,0.7,40.3-10.2,56.8-32.9l4.6-32.3c0.9-7.5,1.3-15.9,1.3-25.4c-0.4-17.1-3.9-30.8-10.7-41.2c-6.8-10.3-16.6-15.7-29.5-16
		c-12.9-0.2-24.4,4.4-34.7,13.8c-10.3,9.4-18,22.1-23.3,38.4c-5.3,16.2-7.2,32.3-5.8,48.4c1.2,14.3,5.5,25.7,12.7,34.2
		C501.4,671.1,510.9,675.5,522.7,675.6z"/>
</g>
<g class="st2">
	<path class="st0" d="M764.3,1112.5c8.2-7.6,16.9-11.3,26.2-11.1c8,0.1,14.7,2.2,20.3,6.4c5.6,4.2,9.7,10,12.4,17.5
		c2.7,7.5,3.6,15.5,2.8,24.2c-0.9,10.7-4.3,20.3-10.1,29c-5.8,8.6-13.4,15-22.8,19.1c-6.2,2.7-12.9,4-20.3,3.9
		c-11.9-0.3-21.5-4.4-28.6-12.5c-7.1-8.1-11.1-18.9-12-32.5c-0.3-4.7-0.2-9.4,0.3-14l1.1-8.6c3.2-25.3,12.3-45,27-59.3
		c14.8-14.3,33.7-21.4,56.8-21.4h2.1l-2.2,24.1h-1.5c-13.1-0.2-23.8,2.6-32.2,8.5S768.7,1100.4,764.3,1112.5z M782.7,1123.2
		c-8-0.3-15,3.8-21.1,12.2l-1.7,12c-0.3,2.8-0.5,5.9-0.5,9.4c0.1,6.4,1.5,11.5,4,15.3c2.5,3.8,6.2,5.8,10.9,6
		c4.8,0.1,9.1-1.6,12.9-5.1c3.8-3.5,6.7-8.2,8.7-14.3c2-6,2.7-12,2.1-18c-0.5-5.3-2-9.5-4.7-12.7S787.1,1123.3,782.7,1123.2z"/>
</g>
</svg>
